<svg width="745" height="823" viewBox="0 0 745 823" fill="none" xmlns="http://www.w3.org/2000/svg">
<path d="M0.52002 725.56L93.52 725.08L186.54 724.9L372.54 724.56L558.54 724.9L651.56 725.08L744.56 725.56L651.56 726.04L558.54 726.22L372.54 726.56L186.54 726.22L93.52 726.04L0.52002 725.56Z" fill="#263238"/>
<path d="M258.6 7.78H0V201.98H258.6V7.78Z" fill="#DBDBDB"/>
<path d="M241.9 22.82H16.68V186.94H241.9V22.82Z" fill="#EBEBEB"/>
<path d="M100.24 46.36H45.88V165.56H100.24V46.36Z" fill="white"/>
<path d="M212.7 46.36H118.26V110.82H212.7V46.36Z" fill="white"/>
<path d="M162.74 121.08H118.26V165.56H162.74V121.08Z" fill="white"/>
<path d="M212.7 121.08H181.66V165.56H212.7V121.08Z" fill="white"/>
<path d="M100.32 97.8C114.525 97.8 126.04 86.2848 126.04 72.08C126.04 57.8752 114.525 46.36 100.32 46.36C86.1152 46.36 74.6 57.8752 74.6 72.08C74.6 86.2848 86.1152 97.8 100.32 97.8Z" fill="#DBDBDB"/>
<path d="M118.26 165.56H194.08V89.74L118.26 165.56Z" fill="#DBDBDB"/>
<path d="M744.56 0H478.52V407.92H744.56V0Z" fill="#EBEBEB"/>
<path d="M605.36 16.34H493.02V197.78H605.36V16.34Z" fill="white"/>
<path d="M730.06 16.34H617.72V197.78H730.06V16.34Z" fill="white"/>
<path d="M605.36 210.12H493.02V391.56H605.36V210.12Z" fill="white"/>
<path d="M730.06 210.12H617.72V391.56H730.06V210.12Z" fill="white"/>
<path d="M641.4 0H744.56V583.58H684.84L726.52 286.62L641.4 0Z" fill="#DBDBDB"/>
<path d="M659.28 15.76L676.56 83.36L693.54 151.04L727.5 286.38L727.54 286.56L727.52 286.74L711.46 428.28L703.42 499.04L695.08 569.78L702.44 498.94L710.14 428.12L725.54 286.52L725.56 286.86L692.26 151.36L675.62 83.6L659.28 15.76Z" fill="#EBEBEB"/>
<path d="M738.42 27.74L738.9 86.26L739.18 144.8L739.42 261.84L739.18 378.9L738.92 437.42L738.42 495.96L737.92 437.42L737.66 378.9L737.42 261.84L737.66 144.8L737.94 86.26L738.42 27.74Z" fill="#EBEBEB"/>
<path d="M719.14 38.7L723.26 100.86L727.1 163.04L734.72 287.38C734.22 310.48 733.44 333.58 732.82 356.68L730.82 425.96L728.82 495.26L726.54 564.62L727.86 495.32L729.48 426.02L731.12 356.72C731.68 333.62 732.12 310.5 732.82 287.42L725.82 163.02L722.34 100.92L719.14 38.7Z" fill="#EBEBEB"/>
<path d="M705.72 555.74L711.42 488.5L717.42 421.28C721.56 376.48 725.52 331.66 729.78 286.88V287.14L711.16 182.46L701.98 130.1L692.96 77.72L702.82 129.96L712.54 182.12L731.68 286.7V286.96C727.68 331.76 723.28 376.54 719.1 421.34L712.54 488.5L705.72 555.74Z" fill="#EBEBEB"/>
<path d="M744.56 281.72H721.26V295.32H744.56V281.72Z" fill="#DBDBDB"/>
<path d="M541.54 0H478.52V583.6H541.54V0Z" fill="#DBDBDB"/>
<path d="M529.58 27.74L530.08 90.84L530.26 153.94L530.58 280.14L530.26 406.34L530.08 469.44L529.58 532.54L529.1 469.44L528.92 406.34L528.6 280.14L528.92 153.94L529.1 90.84L529.58 27.74Z" fill="#EBEBEB"/>
<path d="M500.66 42.36L501.14 98.72L501.42 155.06L501.66 267.74L501.42 380.42L501.14 436.76L500.66 493.12L500.16 436.76L499.88 380.42L499.66 267.74L499.9 155.06L500.16 98.72L500.66 42.36Z" fill="#EBEBEB"/>
<path d="M515.12 55.68L515.62 121.64L515.78 187.62L516.12 319.56L515.78 451.5L515.62 517.48L515.12 583.46L514.64 517.48L514.46 451.5L514.12 319.56L514.46 187.62L514.64 121.64L515.12 55.68Z" fill="#EBEBEB"/>
<path d="M489.9 31.06L490.38 100.12L490.56 169.16L490.9 307.26L490.56 445.36L490.38 514.4L489.9 583.46L489.4 514.4L489.24 445.36L488.9 307.26L489.24 169.16L489.42 100.12L489.9 31.06Z" fill="#EBEBEB"/>
<path d="M142.38 238.32H62.24V293.16H142.38V238.32Z" fill="#EBEBEB"/>
<path d="M62.24 242.34C69.14 246.22 75.94 250.34 82.7 254.34C86.1 256.34 89.42 258.48 92.7 260.56L102.7 266.82H101.62L111.62 260.56C114.98 258.56 118.3 256.36 121.62 254.34L131.8 248.24C135.22 246.24 138.62 244.24 142.08 242.24C138.86 244.54 135.56 246.74 132.32 248.98L122.78 255.74C119.5 257.96 116.14 260.04 112.78 262.2L102.78 268.62L102.24 268.96L101.7 268.62L91.7 262.2C88.38 260.04 85.04 257.96 81.7 255.74C75.28 251.3 68.7 246.92 62.24 242.34Z" fill="white"/>
<path d="M62.54 283.4C67.3796 279.162 72.4615 275.208 77.76 271.56C83.0075 267.834 88.4703 264.422 94.12 261.34C89.2856 265.591 84.2033 269.551 78.9 273.2C73.6522 276.919 68.1893 280.325 62.54 283.4V283.4Z" fill="white"/>
<path d="M142.2 283.4C136.553 280.32 131.091 276.915 125.84 273.2C120.54 269.556 115.464 265.595 110.64 261.34C116.283 264.422 121.739 267.835 126.98 271.56C132.286 275.198 137.368 279.152 142.2 283.4Z" fill="white"/>
<path d="M63.24 220.2H61.24V226.82H63.24V220.2Z" fill="#DBDBDB"/>
<path d="M49.6283 225.006L48.2141 226.42L52.8952 231.101L54.3094 229.687L49.6283 225.006Z" fill="#DBDBDB"/>
<path d="M50.02 238.04H43.4V240.04H50.02V238.04Z" fill="#DBDBDB"/>
<path d="M52.9115 246.988L48.2304 251.669L49.6446 253.083L54.3257 248.402L52.9115 246.988Z" fill="#DBDBDB"/>
<path d="M63.24 251.28H61.24V257.9H63.24V251.28Z" fill="#DBDBDB"/>
<path d="M71.6127 246.986L70.1985 248.4L74.8795 253.081L76.2937 251.667L71.6127 246.986Z" fill="#DBDBDB"/>
<path d="M81.1 238.04H74.48V240.04H81.1V238.04Z" fill="#DBDBDB"/>
<path d="M74.8573 225.018L70.1763 229.699L71.5905 231.113L76.2715 226.432L74.8573 225.018Z" fill="#DBDBDB"/>
<path d="M381.38 822.3C559.271 822.3 703.48 804.848 703.48 783.32C703.48 761.792 559.271 744.34 381.38 744.34C203.489 744.34 59.28 761.792 59.28 783.32C59.28 804.848 203.489 822.3 381.38 822.3Z" fill="#EBEBEB"/>
<path d="M543.46 646.16H422.54V654.16H543.46V646.16Z" fill="#455A64"/>
<path d="M431.62 367.84L431.04 405.74L427.36 646.16L427.24 654.16L425.62 759.62H419.46L417.84 654.16L417.72 646.16L414.04 405.74L413.46 367.84H431.62Z" fill="#455A64"/>
<path d="M413.46 367.84H431.62L431.04 405.74H414.04L413.46 367.84Z" fill="#263238"/>
<path d="M552.52 367.84L551.94 405.74L546.52 759.62H540.36L538.74 654.16L538.62 646.16L534.94 405.74L534.36 367.84H552.52Z" fill="#455A64"/>
<path d="M552.52 367.84L551.94 405.74H534.94L534.36 367.84H552.52Z" fill="#263238"/>
<path d="M487.06 646.16H366.14V654.16H487.06V646.16Z" fill="#37474F"/>
<path d="M375.22 367.84L374.64 405.74L370.96 646.16L370.84 654.16L369.22 759.62H363.06L357.64 405.74L357.06 367.84H375.22Z" fill="#37474F"/>
<path d="M357.06 367.84H375.22L374.64 405.74H357.64L357.06 367.84Z" fill="#263238"/>
<path d="M496.14 367.84L495.56 405.74L491.88 646.16L491.76 654.16L490.14 759.62H483.98L482.36 654.16L482.24 646.16L478.56 405.74L477.98 367.84H496.14Z" fill="#37474F"/>
<path d="M477.98 367.84H496.14L495.56 405.74H478.56L477.98 367.84Z" fill="#263238"/>
<path d="M561.96 350.2H349.84V370.96H561.96V350.2Z" fill="#FFC727"/>
<path opacity="0.1" d="M520.6 350.2H349.84V370.96H520.6V350.2Z" fill="#263238"/>
<path d="M575.46 167.44L561.92 350.2H435.4L434.26 332.66L423.32 165.88L558.5 167.26L575.46 167.44Z" fill="#FFC727"/>
<path opacity="0.1" d="M558.5 167.26L549.2 350.2H435.4L434.26 332.66L423.32 165.88L558.5 167.26Z" fill="#263238"/>
<path d="M563.22 332.66L561.92 350.2H435.4L434.26 332.66H563.22Z" fill="#263238"/>
<path d="M409.98 68.14C385.14 94.62 382.84 159.78 416.96 202C445.84 237.74 509.26 241.84 535.34 218.52C563.02 193.78 558.48 154.04 535.16 138.52C512.64 123.54 486.8 126.78 472.88 110.42C466.2 102.58 463.06 85.48 453.72 73.48C443.3 60.12 422.7 54.56 409.98 68.14Z" fill="#263238"/>
<path d="M439.82 168.28C433.36 211.1 427.68 244.28 416.72 253.58C407.88 261.02 394.94 267.04 381.46 271.78C367.027 276.656 352.288 280.578 337.34 283.52C332.74 284.46 328.9 285.16 326.18 285.68C319.44 286.92 303 243.4 307.16 237.36C308.12 235.98 312.48 234.48 318.66 232.94C339.48 227.78 381.02 222.22 383.22 219.56C385.42 216.9 396.8 197.44 412.22 171.94C422.86 154.32 432.58 148.36 437.32 152.34C439.98 154.6 441.06 160.02 439.82 168.28Z" fill="#EB9481"/>
<path d="M337.34 283.52C330.651 287.52 323.703 291.068 316.54 294.14C310.78 296.34 294.04 302.14 291 296.14C289 291.98 298.36 287.38 305 283.98C308.48 282.18 312.62 277.98 311.36 275.82C309.18 271.82 300.24 276.74 294.44 280.78C283.22 288.58 268.44 302.2 260.84 296.78C257.94 294.78 260.84 290.36 265.04 285.96C257.94 291.28 250.24 295.78 247.04 293.64C246.194 293.089 245.588 292.238 245.344 291.259C245.099 290.28 245.233 289.244 245.72 288.36C244.81 288.878 243.767 289.113 242.723 289.035C241.679 288.956 240.682 288.568 239.86 287.92C237.22 285.56 238.1 281.7 240.44 277.62C239.981 277.61 239.531 277.491 239.127 277.271C238.724 277.052 238.378 276.74 238.12 276.36C232.3 268.9 256.3 244.2 265.08 241.36C290.86 232.96 319.08 232.96 319.08 232.96C329.8 240.36 337.36 283.5 337.34 283.52Z" fill="#EB9481"/>
<path d="M296.68 262.16C290.484 263.596 284.685 266.39 279.7 270.34C273.9 275.06 269.5 281.2 264.22 286.34C264.207 286.354 264.197 286.371 264.19 286.39C264.184 286.408 264.181 286.428 264.182 286.447C264.182 286.467 264.187 286.486 264.196 286.503C264.204 286.521 264.216 286.537 264.23 286.55C264.244 286.563 264.261 286.573 264.28 286.58C264.298 286.587 264.318 286.589 264.337 286.588C264.357 286.588 264.376 286.583 264.393 286.574C264.411 286.566 264.427 286.554 264.44 286.54C266.9 283.86 269.66 281.42 272.24 278.84C274.82 276.26 277.2 273.7 279.88 271.36C284.723 267.056 290.482 263.91 296.72 262.16C296.72 262.16 296.74 262.14 296.68 262.16Z" fill="#263238"/>
<path d="M290.88 251.4C283.988 253.634 277.34 256.562 271.04 260.14C264.32 264.28 259.3 270.56 254.36 276.62C251.373 280.247 248.487 283.94 245.7 287.7C245.58 287.86 245.7 288.08 245.92 287.92C250.92 281.68 256.113 275.593 261.5 269.66C266.454 264.124 272.457 259.624 279.16 256.42C282.98 254.58 286.96 253.06 290.9 251.52C290.98 251.5 290.94 251.38 290.88 251.4Z" fill="#263238"/>
<path d="M282.7 242.26C276.1 244.26 270.34 245.84 264.7 249.92C258.39 254.896 252.727 260.641 247.84 267.02C245.16 270.4 242.58 273.88 240.06 277.38C239.96 277.52 240.2 277.7 240.32 277.56C246.11 269.827 252.397 262.478 259.14 255.56C262.294 252.218 265.951 249.39 269.98 247.18C274.079 245.176 278.341 243.524 282.72 242.24C282.72 242.24 282.72 242.24 282.7 242.26Z" fill="#263238"/>
<path d="M439.82 168.28C433.36 211.1 427.68 244.28 416.72 253.58C407.88 261.02 394.94 267.04 381.46 271.78L437.32 152.34C439.98 154.6 441.06 160.02 439.82 168.28Z" fill="#263238"/>
<path d="M442.54 160.88C442.54 161.54 442.54 162.24 442.54 162.88C442.54 163.52 442.54 164 442.42 164.6C441.51 175.289 439.752 185.89 437.16 196.3H435.4H433.68L419.68 196.76H417.68L403.8 197.22H402.02L396.92 197.38L392.92 197.52C392.92 197.52 406.92 170.68 422.92 154.48C424.414 152.928 426.109 151.583 427.96 150.48C435.2 146.62 442.4 148.9 442.54 160.88Z" fill="#FFC107"/>
<path d="M434.58 151.42C435.154 151.42 435.62 150.954 435.62 150.38C435.62 149.806 435.154 149.34 434.58 149.34C434.006 149.34 433.54 149.806 433.54 150.38C433.54 150.954 434.006 151.42 434.58 151.42Z" fill="white"/>
<path d="M419.78 173.74C419.78 173.947 419.718 174.148 419.603 174.32C419.488 174.491 419.324 174.625 419.133 174.703C418.942 174.781 418.732 174.8 418.53 174.758C418.327 174.717 418.142 174.616 417.997 174.468C417.853 174.321 417.755 174.133 417.718 173.93C417.68 173.727 417.703 173.518 417.785 173.328C417.867 173.138 418.003 172.977 418.177 172.865C418.35 172.754 418.553 172.696 418.76 172.7C418.896 172.7 419.03 172.727 419.155 172.78C419.28 172.832 419.393 172.909 419.488 173.006C419.583 173.103 419.658 173.217 419.708 173.344C419.758 173.47 419.783 173.604 419.78 173.74V173.74Z" fill="white"/>
<path d="M434.58 174.74C435.154 174.74 435.62 174.274 435.62 173.7C435.62 173.126 435.154 172.66 434.58 172.66C434.006 172.66 433.54 173.126 433.54 173.7C433.54 174.274 434.006 174.74 434.58 174.74Z" fill="white"/>
<path d="M426.66 162.94C427.234 162.94 427.7 162.474 427.7 161.9C427.7 161.326 427.234 160.86 426.66 160.86C426.086 160.86 425.62 161.326 425.62 161.9C425.62 162.474 426.086 162.94 426.66 162.94Z" fill="white"/>
<path d="M442.54 160.88C442.54 161.54 442.54 162.24 442.54 162.88C442.385 162.924 442.222 162.932 442.064 162.902C441.906 162.873 441.756 162.807 441.628 162.71C441.499 162.613 441.395 162.488 441.323 162.344C441.252 162.2 441.214 162.041 441.214 161.88C441.214 161.719 441.252 161.56 441.323 161.416C441.395 161.272 441.499 161.147 441.628 161.05C441.756 160.953 441.906 160.887 442.064 160.858C442.222 160.828 442.385 160.836 442.54 160.88V160.88Z" fill="white"/>
<path d="M403.96 197C403.963 197.168 403.921 197.333 403.84 197.48H402.06C401.956 197.319 401.9 197.132 401.9 196.94C401.962 196.723 402.093 196.532 402.274 196.395C402.454 196.259 402.674 196.186 402.9 196.186C403.126 196.186 403.346 196.259 403.526 196.395C403.707 196.532 403.838 196.723 403.9 196.94L403.96 197Z" fill="white"/>
<path d="M419.78 196.94H417.78C417.842 196.723 417.973 196.532 418.154 196.395C418.334 196.259 418.554 196.186 418.78 196.186C419.006 196.186 419.226 196.259 419.406 196.395C419.587 196.532 419.718 196.723 419.78 196.94V196.94Z" fill="white"/>
<path d="M435.42 196.42H433.7C433.79 196.267 433.919 196.141 434.074 196.053C434.228 195.965 434.402 195.92 434.58 195.92C434.75 195.928 434.916 195.978 435.062 196.065C435.209 196.152 435.332 196.274 435.42 196.42V196.42Z" fill="white"/>
<path d="M410.84 186.26C411.414 186.26 411.88 185.794 411.88 185.22C411.88 184.646 411.414 184.18 410.84 184.18C410.266 184.18 409.8 184.646 409.8 185.22C409.8 185.794 410.266 186.26 410.84 186.26Z" fill="white"/>
<path d="M426.66 186.26C427.234 186.26 427.7 185.794 427.7 185.22C427.7 184.646 427.234 184.18 426.66 184.18C426.086 184.18 425.62 184.646 425.62 185.22C425.62 185.794 426.086 186.26 426.66 186.26Z" fill="white"/>
<path d="M442.54 160.88C442.54 161.54 442.54 162.24 442.54 162.88C442.54 163.52 442.54 164 442.42 164.6C441.51 175.289 439.752 185.89 437.16 196.3H435.4H433.68L419.68 196.76H417.68L403.8 197.22H402.02L396.92 197.38L427.86 150.52C435.2 146.62 442.4 148.9 442.54 160.88Z" fill="#263238"/>
<path d="M343.64 674.14C348.58 673.3 468.58 609.14 471.64 603.8C472.8 601.8 464.48 583.8 453.8 562.26C451.48 557.62 449.08 552.84 446.6 548C430.6 516.56 412.84 483.58 412.84 483.58L332.44 526.28L368.44 589.52L376.32 603.42C376.32 603.42 341.34 648.54 338.64 654.74C335.94 660.94 338.7 674.98 343.64 674.14Z" fill="#EB9481"/>
<path d="M343.64 674.14C348.58 673.3 468.58 609.14 471.64 603.8C473.04 601.32 460.46 575.24 446.6 548L368.42 589.52L376.3 603.42C376.3 603.42 341.34 648.54 338.64 654.74C335.94 660.94 338.7 674.98 343.64 674.14Z" fill="white"/>
<path d="M343.64 674.14C348.58 673.3 468.58 609.14 471.64 603.8C472.8 601.8 464.48 583.8 453.8 562.26L376.3 603.42C376.3 603.42 341.34 648.54 338.64 654.74C335.94 660.94 338.7 674.98 343.64 674.14Z" fill="#FFC107"/>
<path d="M342.8 668.42C362.66 657.18 443.78 613.66 464.26 604.06C464.42 604.06 464.48 604.06 464.26 604.18C444.84 615.76 363.36 658.6 342.92 668.76C342.54 668.96 342.38 668.66 342.8 668.42Z" fill="#263238"/>
<path d="M344.04 646.3C346.245 645.044 348.686 644.261 351.21 643.999C353.734 643.737 356.285 644.003 358.7 644.78C363.064 646.129 366.735 649.119 368.94 653.12C368.94 653.24 368.78 653.36 368.7 653.24C365.888 649.621 361.976 647.014 357.555 645.809C353.133 644.604 348.439 644.868 344.18 646.56C344.02 646.62 343.88 646.4 344.04 646.3Z" fill="#263238"/>
<path d="M369.56 609.58C377.56 605.16 388.4 603.02 396.92 606.92C397.26 607.08 397.04 607.54 396.72 607.56C387.709 607.635 378.732 608.667 369.94 610.64C369.799 610.69 369.645 610.683 369.51 610.619C369.375 610.555 369.27 610.441 369.22 610.3C369.17 610.159 369.177 610.005 369.241 609.87C369.305 609.735 369.419 609.63 369.56 609.58V609.58Z" fill="#263238"/>
<path d="M364.64 615.34C372.64 610.92 383.48 608.76 392 612.68C392.34 612.82 392.12 613.3 391.8 613.3C382.788 613.372 373.81 614.411 365.02 616.4C364.95 616.425 364.877 616.436 364.803 616.432C364.729 616.429 364.656 616.411 364.59 616.379C364.523 616.348 364.463 616.303 364.413 616.248C364.363 616.194 364.325 616.13 364.3 616.06C364.275 615.99 364.264 615.917 364.268 615.843C364.271 615.769 364.289 615.696 364.321 615.63C364.352 615.563 364.397 615.503 364.452 615.453C364.506 615.403 364.57 615.365 364.64 615.34V615.34Z" fill="#263238"/>
<path d="M359.72 621.08C367.72 616.66 378.56 614.52 387.08 618.42C387.42 618.58 387.2 619.04 386.88 619.04C377.868 619.113 368.89 620.152 360.1 622.14C359.959 622.19 359.805 622.183 359.67 622.119C359.535 622.055 359.43 621.941 359.38 621.8C359.33 621.659 359.337 621.505 359.401 621.37C359.465 621.235 359.579 621.13 359.72 621.08Z" fill="#263238"/>
<path d="M354.8 626.82C362.8 622.4 373.64 620.26 382.16 624.16C382.5 624.32 382.28 624.78 381.96 624.8C372.948 624.873 363.97 625.912 355.18 627.9C355.045 627.924 354.905 627.899 354.786 627.83C354.667 627.761 354.577 627.651 354.531 627.522C354.485 627.392 354.487 627.25 354.536 627.121C354.586 626.993 354.679 626.886 354.8 626.82Z" fill="#263238"/>
<path d="M448.92 587.74C457.96 582.94 465.44 597 456.38 601.74C447.32 606.48 439.86 592.5 448.92 587.74Z" fill="#263238"/>
<path d="M356.32 604.22C363.66 607.5 372.16 607.48 380.02 608.38C380.196 608.388 380.371 608.353 380.53 608.279C380.69 608.205 380.83 608.094 380.937 607.955C381.045 607.816 381.118 607.653 381.15 607.48C381.182 607.307 381.171 607.128 381.12 606.96C381.155 606.948 381.186 606.928 381.212 606.902C381.237 606.876 381.257 606.844 381.268 606.809C381.28 606.775 381.283 606.738 381.278 606.701C381.273 606.665 381.26 606.63 381.24 606.6C376.698 599.533 370.381 593.781 362.92 589.92C358.54 587.76 351.64 587.2 349.36 592.76C347.08 598.32 352.02 602.3 356.32 604.22ZM352.32 597.74C348.44 588.56 359.94 591.06 363.1 592.78C365.14 593.931 367.097 595.221 368.96 596.64C372.86 599.52 376.28 602.9 379.86 606.14C376.04 605.46 372.18 605.12 368.34 604.58C363.8 603.94 354.54 602.8 352.38 597.74H352.32Z" fill="#263238"/>
<path d="M407.1 586.16C403.66 581.24 397.1 583.32 393.24 586.4C386.816 591.816 381.927 598.822 379.06 606.72C379.048 606.754 379.043 606.791 379.047 606.827C379.051 606.863 379.063 606.898 379.082 606.929C379.102 606.959 379.128 606.985 379.158 607.005C379.189 607.024 379.224 607.036 379.26 607.04C379.252 607.216 379.285 607.391 379.357 607.552C379.428 607.713 379.536 607.856 379.672 607.968C379.807 608.081 379.967 608.16 380.139 608.2C380.31 608.24 380.489 608.24 380.66 608.2C388.12 605.58 396.42 603.7 402.84 598.88C406.54 596.06 410.34 590.82 407.1 586.16ZM391.1 601.92C387.46 603.3 383.78 604.48 380.18 605.92C382.96 601.92 385.56 597.92 388.74 594.24C390.239 592.447 391.856 590.757 393.58 589.18C396.28 586.8 406.96 581.82 405.2 591.64C404.28 597.12 395.48 600.28 391.16 601.92H391.1Z" fill="#263238"/>
<path d="M388.54 411.74C390.54 435.16 444.42 537.74 444.42 537.74L373.6 573.24L359.42 580.36C359.42 580.36 293.88 464.82 297.42 412.82C300.44 368.7 376.82 313.1 423.8 258.82H487.12C467.12 320.36 393.84 388.3 388.72 409.04C388.528 409.926 388.467 410.836 388.54 411.74V411.74Z" fill="#9493B6"/>
<path d="M359.34 563.32C373.34 555.86 369.16 557.82 383.16 550.52C390.02 546.94 424.42 528.92 431.36 526.64C431.396 526.631 431.433 526.634 431.466 526.649C431.5 526.664 431.527 526.69 431.543 526.723C431.56 526.756 431.564 526.794 431.557 526.829C431.549 526.865 431.529 526.897 431.5 526.92C425.5 531.2 390.8 548.5 383.88 551.94C369.76 558.98 373.74 556.82 359.54 563.7C359.515 563.721 359.485 563.737 359.453 563.745C359.422 563.753 359.388 563.755 359.356 563.748C359.323 563.742 359.293 563.729 359.266 563.709C359.24 563.689 359.218 563.664 359.203 563.635C359.188 563.606 359.179 563.573 359.178 563.54C359.176 563.507 359.183 563.475 359.196 563.444C359.209 563.414 359.229 563.387 359.254 563.366C359.279 563.344 359.308 563.329 359.34 563.32Z" fill="#263238"/>
<path d="M479.68 268.38C459.589 302.369 436.852 334.722 411.68 365.14C405.52 372.54 399.16 379.74 392.78 386.96C387.38 392.96 381.92 399.82 380.88 408.18C379.74 417.5 383.8 426.56 387.06 435.04C390.66 444.4 394.3 453.74 398.1 463.04C402.22 473.04 406.52 483.04 411.3 492.66C413.753 497.62 416.32 502.52 419 507.36C420.333 509.773 421.713 512.173 423.14 514.56C423.84 515.76 428.8 523.94 429.52 525.14C429.76 525.52 430.36 525.98 429.76 524.98C428.4 522.74 422.86 513.46 421.58 511.18C416.54 502.18 412.04 492.92 407.78 483.52C403.52 474.12 399.44 464.36 395.6 454.66C391.76 444.96 387.8 435.44 384.54 425.74C382.612 420.775 381.655 415.486 381.72 410.16C382.142 405.019 383.968 400.093 387 395.92C392.44 387.92 399.72 380.96 405.98 373.58C418.993 358.26 431.353 342.42 443.06 326.06C456.37 307.555 468.707 288.369 480.02 268.58C480.02 268.36 479.78 268.24 479.68 268.38Z" fill="#263238"/>
<path d="M444.42 537.74L373.6 573.24L388.54 411.74C390.54 435.16 444.42 537.74 444.42 537.74Z" fill="#263238"/>
<path d="M417.8 799.74C422.82 799.74 551.94 756.74 555.8 752C557.28 750.2 552.12 731.04 545.22 708C543.74 703.04 542.16 698 540.54 692.74C530.06 659.06 518.14 623.54 518.14 623.54L431.68 652.06L456.48 720.46L461.9 735.48C461.9 735.48 419.9 774.06 416.12 779.72C412.34 785.38 412.8 799.62 417.8 799.74Z" fill="#EB9481"/>
<path d="M417.8 799.74C422.82 799.74 551.94 756.74 555.8 752C557.6 749.8 549.6 722 540.54 692.78L456.54 720.5L461.96 735.52C461.96 735.52 419.96 774.1 416.18 779.76C412.4 785.42 412.8 799.62 417.8 799.74Z" fill="white"/>
<path d="M417.8 799.74C422.82 799.74 551.94 756.74 555.8 752C557.28 750.2 552.12 731.04 545.22 708L461.9 735.48C461.9 735.48 419.9 774.06 416.12 779.72C412.34 785.38 412.8 799.62 417.8 799.74Z" fill="#FFC107"/>
<path d="M417.94 793.84C439.4 786.12 526.72 756.92 548.52 750.92C548.7 750.92 548.74 750.92 548.52 751.04C527.42 759.18 439.88 787.66 418.02 794.2C417.6 794.34 417.48 794.02 417.94 793.84Z" fill="#263238"/>
<path d="M422.9 772.26C425.283 771.394 427.82 771.032 430.351 771.197C432.881 771.363 435.35 772.051 437.6 773.22C441.683 775.304 444.801 778.888 446.3 783.22C446.3 783.34 446.1 783.42 446.04 783.22C443.879 779.178 440.465 775.946 436.31 774.009C432.156 772.073 427.485 771.536 423 772.48C422.82 772.56 422.72 772.32 422.9 772.26Z" fill="#263238"/>
<path d="M454.24 740.38C462.86 737.36 473.92 737.08 481.66 742.38C481.96 742.58 481.66 743 481.36 742.96C472.465 741.507 463.44 741.011 454.44 741.48C454.298 741.497 454.155 741.46 454.04 741.375C453.925 741.29 453.847 741.165 453.822 741.024C453.796 740.884 453.825 740.739 453.903 740.619C453.981 740.499 454.101 740.414 454.24 740.38V740.38Z" fill="#263238"/>
<path d="M448.42 745.2C457.04 742.2 468.1 741.92 475.84 747.2C476.14 747.42 475.84 747.84 475.54 747.78C466.644 746.334 457.62 745.844 448.62 746.32C448.486 746.317 448.357 746.268 448.255 746.181C448.153 746.094 448.084 745.974 448.06 745.842C448.037 745.71 448.06 745.574 448.125 745.457C448.191 745.34 448.295 745.249 448.42 745.2V745.2Z" fill="#263238"/>
<path d="M442.54 750.04C451.16 747.04 462.22 746.74 469.96 752.04C470.26 752.24 469.96 752.66 469.68 752.62C460.778 751.174 451.746 750.685 442.74 751.16C442.606 751.157 442.477 751.108 442.375 751.021C442.273 750.934 442.204 750.814 442.18 750.682C442.157 750.55 442.18 750.414 442.245 750.297C442.311 750.18 442.415 750.089 442.54 750.04V750.04Z" fill="#263238"/>
<path d="M436.78 754.88C445.4 751.86 456.46 751.58 464.2 756.88C464.5 757.08 464.2 757.5 463.92 757.46C455.018 756.007 445.987 755.511 436.98 755.98C436.838 755.997 436.695 755.96 436.58 755.875C436.465 755.79 436.387 755.665 436.362 755.524C436.336 755.384 436.365 755.239 436.443 755.119C436.521 754.999 436.641 754.914 436.78 754.88V754.88Z" fill="#263238"/>
<path d="M536.16 732.18C545.9 728.98 550.9 744.18 541.14 747.3C531.38 750.42 526.42 735.4 536.16 732.18Z" fill="#263238"/>
<path d="M442.1 732.84C448.78 737.32 457.18 738.74 464.76 740.96C465.54 741.18 466.1 740.42 466.08 739.74C466.117 739.733 466.152 739.719 466.183 739.698C466.213 739.676 466.239 739.648 466.258 739.616C466.277 739.584 466.289 739.548 466.293 739.51C466.296 739.473 466.292 739.435 466.28 739.4C462.992 731.663 457.73 724.925 451.02 719.86C447.02 717 440.36 715.28 437.18 720.38C434 725.48 438.2 730.22 442.1 732.84ZM439.32 725.74C437.04 716.02 447.94 720.44 450.78 722.68C452.591 724.158 454.302 725.755 455.9 727.46C459.137 731.041 462.188 734.786 465.04 738.68C461.38 737.36 457.64 736.36 453.94 735.18C449.52 733.84 440.54 731.16 439.32 725.74Z" fill="#263238"/>
<path d="M495.2 723.74C492.64 718.3 485.78 719.22 481.5 721.62C474.256 725.876 468.256 731.958 464.1 739.26C464.08 739.292 464.068 739.328 464.064 739.365C464.06 739.402 464.066 739.44 464.079 739.475C464.093 739.51 464.114 739.542 464.142 739.567C464.17 739.592 464.204 739.61 464.24 739.62C464.14 740.28 464.6 741.12 465.42 740.98C473.22 739.66 481.7 739.22 488.86 735.54C493.04 733.3 497.62 728.76 495.2 723.74ZM476.82 736.56C473 737.3 469.18 737.86 465.38 738.74C468.8 735.3 472.04 731.74 475.78 728.74C477.559 727.221 479.444 725.831 481.42 724.58C484.48 722.68 495.84 719.56 492.46 728.96C490.54 733.94 481.38 735.58 476.82 736.46V736.56Z" fill="#263238"/>
<path d="M446.96 713.02L540.54 682.18C540.54 682.18 495.58 552.72 484.88 487.74C479.24 453.56 505.82 356.48 515.26 346.66C539.38 321.56 540.46 295.3 523 258.66H444.02C444.02 258.66 448.86 297.42 448.18 298.96C430.54 338.94 379.34 428.62 387.66 495.74C401.22 605.32 446.96 713.02 446.96 713.02Z" fill="#9493B6"/>
<path d="M444.18 693.74C463.42 686.02 524.82 665.96 531.64 664.8C531.8 664.8 531.88 665.02 531.74 665.08C525.74 668.4 493.5 679.42 444.32 694.16C444.292 694.169 444.263 694.173 444.234 694.171C444.205 694.169 444.177 694.161 444.151 694.148C444.125 694.135 444.102 694.117 444.083 694.095C444.064 694.073 444.049 694.048 444.04 694.02C444.031 693.993 444.027 693.963 444.029 693.934C444.031 693.905 444.039 693.877 444.052 693.851C444.065 693.825 444.083 693.802 444.105 693.783C444.127 693.764 444.152 693.749 444.18 693.74V693.74Z" fill="#263238"/>
<path d="M442.04 260.24C443.32 270.38 443.72 287.76 449.62 287.76C455.52 287.76 453.5 266.56 453.44 261.76C453.44 257.32 454.92 257.86 455.34 263.08C456.44 277.2 456.66 289.7 449.1 289.48C441.54 289.26 440.54 267.22 440.54 262.2C440.54 259.6 441.64 257.04 442.04 260.24Z" fill="#263238"/>
<path d="M449.26 288.44C449.791 291.989 449.878 295.59 449.52 299.16C449.52 299.46 448.3 299.28 448.18 299.06C447.4 297.62 447.64 290.64 447.36 288.78C447.315 288.528 447.372 288.268 447.518 288.058C447.664 287.848 447.888 287.705 448.14 287.66C448.392 287.615 448.651 287.672 448.862 287.818C449.072 287.964 449.215 288.188 449.26 288.44V288.44Z" fill="#263238"/>
<path d="M448.18 299.06C433.7 324.24 412.54 371.74 411.08 380.5C411.08 380.94 411.48 381.16 411.66 380.72C414.96 372.72 437.02 324.9 449.52 299.16C449.78 298.66 448.42 298.62 448.18 299.06Z" fill="#263238"/>
<path d="M488.06 410.86C494.34 386.6 501.7 362.2 514.5 340.48C518.04 334.48 522.32 328.9 525.66 322.8C528.825 317.13 530.555 310.772 530.7 304.28C530.96 290.28 525 277 519.22 264.58C519.06 264.22 518.52 264.58 518.7 264.92C524.26 276.92 530.06 289.9 529.96 303.42C529.906 310.063 528.158 316.582 524.88 322.36C521.92 327.7 518.24 332.6 515.08 337.8C502.2 358.88 494.5 382.6 488.2 406.36C481.5 431.7 473.52 457.76 476.7 484.22C478.597 497.295 481.411 510.22 485.12 522.9C488.7 536.34 492.44 549.74 496.24 563.14C504.76 593.14 513.3 623.34 523.22 652.98C523.22 653.08 523.44 652.98 523.4 652.98C515.54 626.1 507.18 599.4 499.58 572.44C495.82 559.04 492.14 545.62 488.54 532.18C484.96 518.78 481.08 505.4 478.74 491.72C476.33 477.867 476.37 463.699 478.86 449.86C481.22 436.68 484.72 423.74 488.06 410.86Z" fill="#263238"/>
<path d="M526.2 260.88C522.495 263.059 518.654 264.996 514.7 266.68L512.82 267.44C501.813 271.756 490.288 274.614 478.54 275.94C443.4 280.22 410.24 272.9 407.44 268.34L411.18 232.84L411.38 230.84L411.88 226.02C411.88 226.02 403.2 214.9 402.74 202.02C402.719 200.629 402.853 199.241 403.14 197.88C403.24 197.28 403.38 196.66 403.54 196C406.1 185.6 414.38 170.2 421.44 159.52C423.717 155.927 426.278 152.523 429.1 149.34C437.1 140.92 446.04 139 454.82 141.34C458.839 142.507 462.637 144.331 466.06 146.74C474.432 152.816 481.556 160.449 487.04 169.22C493.36 178.88 500.08 193.04 506.12 207.34C506.34 207.84 506.54 208.34 506.74 208.84C517.6 234.96 526.2 260.88 526.2 260.88Z" fill="#FFC107"/>
<path d="M435.62 150.38C435.62 150.656 435.51 150.92 435.315 151.115C435.12 151.31 434.856 151.42 434.58 151.42C434.374 151.42 434.173 151.359 434.002 151.245C433.831 151.13 433.698 150.968 433.619 150.778C433.54 150.588 433.52 150.379 433.56 150.177C433.6 149.975 433.699 149.79 433.845 149.645C433.99 149.499 434.175 149.4 434.377 149.36C434.579 149.32 434.788 149.34 434.978 149.419C435.168 149.498 435.33 149.631 435.445 149.802C435.559 149.973 435.62 150.174 435.62 150.38V150.38ZM450.4 149.36C450.193 149.36 449.992 149.422 449.82 149.537C449.649 149.652 449.515 149.816 449.437 150.007C449.359 150.198 449.34 150.408 449.382 150.61C449.423 150.813 449.524 150.998 449.672 151.142C449.819 151.287 450.007 151.385 450.21 151.422C450.413 151.46 450.622 151.437 450.812 151.355C451.002 151.273 451.163 151.137 451.275 150.963C451.386 150.789 451.444 150.586 451.44 150.38C451.44 150.244 451.413 150.11 451.36 149.985C451.308 149.86 451.231 149.747 451.134 149.652C451.037 149.557 450.923 149.482 450.796 149.432C450.67 149.382 450.536 149.357 450.4 149.36V149.36ZM466.24 149.36C466.033 149.356 465.829 149.414 465.655 149.527C465.481 149.64 465.344 149.802 465.263 149.993C465.182 150.183 465.16 150.394 465.199 150.598C465.239 150.801 465.338 150.989 465.485 151.135C465.631 151.282 465.819 151.381 466.022 151.421C466.226 151.46 466.436 151.438 466.627 151.357C466.818 151.276 466.98 151.139 467.093 150.965C467.206 150.791 467.264 150.587 467.26 150.38C467.26 150.109 467.153 149.85 466.961 149.659C466.77 149.467 466.511 149.36 466.24 149.36ZM418.76 172.66C418.623 172.66 418.488 172.687 418.362 172.739C418.236 172.791 418.121 172.868 418.025 172.965C417.928 173.061 417.851 173.176 417.799 173.302C417.747 173.428 417.72 173.563 417.72 173.7C417.676 173.855 417.668 174.018 417.698 174.176C417.727 174.334 417.793 174.483 417.89 174.612C417.987 174.74 418.112 174.845 418.256 174.916C418.4 174.988 418.559 175.026 418.72 175.026C418.881 175.026 419.04 174.988 419.184 174.916C419.328 174.845 419.453 174.74 419.55 174.612C419.647 174.483 419.713 174.334 419.742 174.176C419.772 174.018 419.764 173.855 419.72 173.7C419.726 173.436 419.629 173.18 419.45 172.986C419.271 172.792 419.023 172.675 418.76 172.66V172.66ZM434.58 172.66C434.443 172.66 434.308 172.687 434.182 172.739C434.056 172.791 433.941 172.868 433.845 172.965C433.748 173.061 433.671 173.176 433.619 173.302C433.567 173.428 433.54 173.563 433.54 173.7C433.54 173.976 433.65 174.24 433.845 174.435C434.04 174.63 434.304 174.74 434.58 174.74C434.854 174.735 435.116 174.624 435.31 174.43C435.504 174.236 435.615 173.974 435.62 173.7C435.62 173.56 435.592 173.421 435.537 173.293C435.482 173.164 435.402 173.047 435.301 172.95C435.201 172.853 435.081 172.777 434.95 172.727C434.819 172.678 434.68 172.655 434.54 172.66H434.58ZM450.4 172.66C450.264 172.66 450.13 172.687 450.005 172.739C449.88 172.792 449.767 172.869 449.672 172.966C449.577 173.063 449.502 173.177 449.452 173.303C449.402 173.43 449.377 173.564 449.38 173.7C449.38 173.906 449.442 174.108 449.557 174.28C449.672 174.451 449.836 174.584 450.027 174.663C450.218 174.741 450.428 174.76 450.63 174.718C450.833 174.676 451.018 174.575 451.162 174.428C451.307 174.281 451.405 174.093 451.442 173.89C451.48 173.687 451.457 173.478 451.375 173.288C451.293 173.098 451.157 172.937 450.983 172.825C450.809 172.714 450.606 172.656 450.4 172.66V172.66ZM466.24 172.66C466.103 172.66 465.968 172.687 465.842 172.739C465.716 172.791 465.601 172.868 465.505 172.965C465.408 173.061 465.331 173.176 465.279 173.302C465.227 173.428 465.2 173.563 465.2 173.7C465.156 173.855 465.148 174.018 465.178 174.176C465.207 174.334 465.273 174.483 465.37 174.612C465.467 174.74 465.592 174.845 465.736 174.916C465.88 174.988 466.039 175.026 466.2 175.026C466.361 175.026 466.52 174.988 466.664 174.916C466.808 174.845 466.933 174.74 467.03 174.612C467.127 174.483 467.193 174.334 467.222 174.176C467.252 174.018 467.244 173.855 467.2 173.7C467.206 173.436 467.109 173.18 466.93 172.986C466.751 172.792 466.503 172.675 466.24 172.66V172.66ZM482.06 172.66C481.923 172.66 481.788 172.687 481.662 172.739C481.536 172.791 481.421 172.868 481.325 172.965C481.228 173.061 481.151 173.176 481.099 173.302C481.047 173.428 481.02 173.563 481.02 173.7C481.02 173.976 481.13 174.24 481.325 174.435C481.52 174.63 481.784 174.74 482.06 174.74C482.334 174.735 482.596 174.624 482.79 174.43C482.984 174.236 483.095 173.974 483.1 173.7C483.1 173.563 483.073 173.428 483.021 173.302C482.969 173.176 482.892 173.061 482.795 172.965C482.699 172.868 482.584 172.791 482.458 172.739C482.332 172.687 482.197 172.66 482.06 172.66V172.66ZM426.66 160.88C426.453 160.88 426.252 160.942 426.08 161.057C425.909 161.172 425.775 161.336 425.697 161.527C425.619 161.718 425.6 161.928 425.642 162.13C425.683 162.333 425.784 162.518 425.932 162.662C426.079 162.807 426.267 162.905 426.47 162.942C426.673 162.98 426.882 162.957 427.072 162.875C427.262 162.793 427.423 162.657 427.534 162.483C427.646 162.309 427.704 162.106 427.7 161.9C427.7 161.764 427.673 161.63 427.62 161.505C427.568 161.38 427.491 161.267 427.394 161.172C427.297 161.077 427.183 161.002 427.056 160.952C426.93 160.902 426.796 160.877 426.66 160.88V160.88ZM442.5 160.88C442.293 160.876 442.089 160.934 441.915 161.047C441.741 161.16 441.604 161.322 441.523 161.513C441.442 161.703 441.42 161.914 441.459 162.118C441.499 162.321 441.598 162.509 441.745 162.655C441.891 162.802 442.079 162.901 442.282 162.941C442.486 162.98 442.696 162.958 442.887 162.877C443.078 162.796 443.24 162.659 443.353 162.485C443.466 162.311 443.524 162.107 443.52 161.9C443.52 161.636 443.418 161.383 443.236 161.192C443.053 161.002 442.804 160.89 442.54 160.88H442.5ZM458.32 160.88C458.165 160.836 458.002 160.828 457.844 160.858C457.686 160.887 457.537 160.953 457.408 161.05C457.28 161.147 457.175 161.272 457.103 161.416C457.032 161.56 456.994 161.719 456.994 161.88C456.994 162.041 457.032 162.2 457.103 162.344C457.175 162.488 457.28 162.613 457.408 162.71C457.537 162.807 457.686 162.873 457.844 162.902C458.002 162.932 458.165 162.924 458.32 162.88C458.475 162.924 458.638 162.932 458.796 162.902C458.954 162.873 459.103 162.807 459.232 162.71C459.36 162.613 459.465 162.488 459.536 162.344C459.608 162.2 459.646 162.041 459.646 161.88C459.646 161.719 459.608 161.56 459.536 161.416C459.465 161.272 459.36 161.147 459.232 161.05C459.103 160.953 458.954 160.887 458.796 160.858C458.638 160.828 458.475 160.836 458.32 160.88V160.88ZM474.14 160.88C473.933 160.88 473.732 160.942 473.56 161.057C473.389 161.172 473.255 161.336 473.177 161.527C473.099 161.718 473.08 161.928 473.122 162.13C473.163 162.333 473.264 162.518 473.412 162.662C473.559 162.807 473.747 162.905 473.95 162.942C474.153 162.98 474.362 162.957 474.552 162.875C474.742 162.793 474.903 162.657 475.015 162.483C475.126 162.309 475.184 162.106 475.18 161.9C475.18 161.764 475.153 161.63 475.1 161.505C475.048 161.38 474.971 161.267 474.874 161.172C474.777 161.077 474.663 161.002 474.536 160.952C474.41 160.902 474.276 160.877 474.14 160.88V160.88ZM403.48 196.14C403.32 196.8 403.18 197.42 403.08 198.02C403.326 197.986 403.55 197.864 403.712 197.676C403.874 197.488 403.962 197.248 403.96 197C403.961 196.827 403.917 196.657 403.833 196.507C403.749 196.356 403.627 196.23 403.48 196.14V196.14ZM418.76 195.98C418.553 195.976 418.349 196.034 418.175 196.147C418.001 196.26 417.864 196.422 417.783 196.613C417.702 196.803 417.68 197.014 417.719 197.218C417.759 197.421 417.858 197.609 418.005 197.755C418.151 197.902 418.339 198.001 418.542 198.041C418.746 198.08 418.956 198.058 419.147 197.977C419.338 197.896 419.5 197.759 419.613 197.585C419.726 197.411 419.784 197.207 419.78 197C419.78 196.729 419.672 196.47 419.481 196.279C419.29 196.087 419.03 195.98 418.76 195.98V195.98ZM434.58 195.98C434.425 195.936 434.262 195.928 434.104 195.958C433.946 195.987 433.797 196.053 433.668 196.15C433.54 196.247 433.435 196.372 433.363 196.516C433.292 196.66 433.254 196.819 433.254 196.98C433.254 197.141 433.292 197.3 433.363 197.444C433.435 197.588 433.54 197.713 433.668 197.81C433.797 197.907 433.946 197.973 434.104 198.002C434.262 198.032 434.425 198.024 434.58 197.98C434.735 198.024 434.898 198.032 435.056 198.002C435.214 197.973 435.363 197.907 435.492 197.81C435.62 197.713 435.725 197.588 435.797 197.444C435.868 197.3 435.906 197.141 435.906 196.98C435.906 196.819 435.868 196.66 435.797 196.516C435.725 196.372 435.62 196.247 435.492 196.15C435.363 196.053 435.214 195.987 435.056 195.958C434.898 195.928 434.735 195.936 434.58 195.98V195.98ZM450.4 195.98C450.193 195.98 449.992 196.042 449.82 196.157C449.649 196.272 449.515 196.436 449.437 196.627C449.359 196.818 449.34 197.028 449.382 197.23C449.423 197.433 449.524 197.618 449.672 197.762C449.819 197.907 450.007 198.005 450.21 198.042C450.413 198.08 450.622 198.057 450.812 197.975C451.002 197.893 451.163 197.757 451.275 197.583C451.386 197.409 451.444 197.206 451.44 197C451.44 196.864 451.413 196.73 451.36 196.605C451.308 196.48 451.231 196.367 451.134 196.272C451.037 196.177 450.923 196.102 450.796 196.052C450.67 196.002 450.536 195.977 450.4 195.98V195.98ZM466.24 195.98C466.033 195.976 465.829 196.034 465.655 196.147C465.481 196.26 465.344 196.422 465.263 196.613C465.182 196.803 465.16 197.014 465.199 197.218C465.239 197.421 465.338 197.609 465.485 197.755C465.631 197.902 465.819 198.001 466.022 198.041C466.226 198.08 466.436 198.058 466.627 197.977C466.818 197.896 466.98 197.759 467.093 197.585C467.206 197.411 467.264 197.207 467.26 197C467.26 196.729 467.153 196.47 466.961 196.279C466.77 196.087 466.511 195.98 466.24 195.98V195.98ZM482.06 195.98C481.905 195.936 481.742 195.928 481.584 195.958C481.426 195.987 481.277 196.053 481.148 196.15C481.02 196.247 480.915 196.372 480.843 196.516C480.772 196.66 480.734 196.819 480.734 196.98C480.734 197.141 480.772 197.3 480.843 197.444C480.915 197.588 481.02 197.713 481.148 197.81C481.277 197.907 481.426 197.973 481.584 198.002C481.742 198.032 481.905 198.024 482.06 197.98C482.215 198.024 482.378 198.032 482.536 198.002C482.694 197.973 482.843 197.907 482.972 197.81C483.1 197.713 483.205 197.588 483.276 197.444C483.348 197.3 483.386 197.141 483.386 196.98C483.386 196.819 483.348 196.66 483.276 196.516C483.205 196.372 483.1 196.247 482.972 196.15C482.843 196.053 482.694 195.987 482.536 195.958C482.378 195.928 482.215 195.936 482.06 195.98V195.98ZM497.88 195.98C497.673 195.98 497.472 196.042 497.3 196.157C497.129 196.272 496.995 196.436 496.917 196.627C496.839 196.818 496.82 197.028 496.862 197.23C496.903 197.433 497.005 197.618 497.152 197.762C497.299 197.907 497.487 198.005 497.69 198.042C497.893 198.08 498.102 198.057 498.292 197.975C498.482 197.893 498.643 197.757 498.755 197.583C498.866 197.409 498.924 197.206 498.92 197C498.92 196.864 498.893 196.73 498.84 196.605C498.788 196.48 498.711 196.367 498.614 196.272C498.517 196.177 498.403 196.102 498.276 196.052C498.15 196.002 498.016 195.977 497.88 195.98V195.98ZM410.84 184.18C410.564 184.18 410.3 184.29 410.105 184.485C409.91 184.68 409.8 184.944 409.8 185.22C409.8 185.496 409.91 185.76 410.105 185.955C410.3 186.15 410.564 186.26 410.84 186.26C411.114 186.255 411.376 186.144 411.57 185.95C411.764 185.756 411.875 185.494 411.88 185.22C411.88 185.083 411.853 184.948 411.801 184.822C411.749 184.696 411.672 184.581 411.575 184.485C411.479 184.388 411.364 184.311 411.238 184.259C411.112 184.207 410.977 184.18 410.84 184.18V184.18ZM426.66 184.18C426.524 184.18 426.39 184.207 426.265 184.259C426.14 184.312 426.027 184.389 425.932 184.486C425.837 184.583 425.762 184.697 425.712 184.823C425.662 184.95 425.637 185.084 425.64 185.22C425.64 185.427 425.702 185.628 425.817 185.8C425.932 185.971 426.096 186.104 426.287 186.183C426.478 186.261 426.688 186.28 426.89 186.238C427.093 186.197 427.278 186.095 427.422 185.948C427.567 185.801 427.665 185.613 427.702 185.41C427.74 185.207 427.717 184.998 427.635 184.808C427.553 184.618 427.417 184.457 427.243 184.345C427.069 184.234 426.866 184.176 426.66 184.18ZM442.5 184.18C442.224 184.18 441.96 184.29 441.765 184.485C441.57 184.68 441.46 184.944 441.46 185.22C441.416 185.375 441.408 185.538 441.438 185.696C441.467 185.854 441.533 186.003 441.63 186.132C441.727 186.26 441.852 186.365 441.996 186.436C442.14 186.508 442.299 186.546 442.46 186.546C442.621 186.546 442.78 186.508 442.924 186.436C443.068 186.365 443.193 186.26 443.29 186.132C443.387 186.003 443.453 185.854 443.482 185.696C443.512 185.538 443.504 185.375 443.46 185.22C443.466 184.963 443.375 184.712 443.204 184.519C443.034 184.326 442.796 184.205 442.54 184.18H442.5ZM458.32 184.18C458.044 184.18 457.78 184.29 457.585 184.485C457.39 184.68 457.28 184.944 457.28 185.22C457.28 185.496 457.39 185.76 457.585 185.955C457.78 186.15 458.044 186.26 458.32 186.26C458.594 186.255 458.856 186.144 459.05 185.95C459.244 185.756 459.355 185.494 459.36 185.22C459.36 185.083 459.333 184.948 459.281 184.822C459.229 184.696 459.152 184.581 459.055 184.485C458.959 184.388 458.844 184.311 458.718 184.259C458.592 184.207 458.457 184.18 458.32 184.18V184.18ZM474.14 184.18C474.004 184.18 473.87 184.207 473.745 184.259C473.62 184.312 473.507 184.389 473.412 184.486C473.317 184.583 473.242 184.697 473.192 184.823C473.142 184.95 473.117 185.084 473.12 185.22C473.12 185.427 473.182 185.628 473.297 185.8C473.412 185.971 473.576 186.104 473.767 186.183C473.958 186.261 474.168 186.28 474.37 186.238C474.573 186.197 474.758 186.095 474.902 185.948C475.047 185.801 475.145 185.613 475.182 185.41C475.22 185.207 475.197 184.998 475.115 184.808C475.033 184.618 474.897 184.457 474.723 184.345C474.55 184.234 474.346 184.176 474.14 184.18V184.18ZM489.98 184.18C489.704 184.18 489.44 184.29 489.245 184.485C489.05 184.68 488.94 184.944 488.94 185.22C488.896 185.375 488.888 185.538 488.918 185.696C488.947 185.854 489.013 186.003 489.11 186.132C489.207 186.26 489.332 186.365 489.476 186.436C489.62 186.508 489.779 186.546 489.94 186.546C490.101 186.546 490.26 186.508 490.404 186.436C490.548 186.365 490.673 186.26 490.77 186.132C490.867 186.003 490.933 185.854 490.962 185.696C490.992 185.538 490.984 185.375 490.94 185.22C490.946 184.956 490.849 184.7 490.67 184.506C490.491 184.312 490.243 184.195 489.98 184.18V184.18ZM418.76 219.28C418.484 219.28 418.22 219.39 418.025 219.585C417.83 219.78 417.72 220.044 417.72 220.32C417.676 220.475 417.668 220.638 417.698 220.796C417.727 220.954 417.793 221.103 417.89 221.232C417.987 221.36 418.112 221.465 418.256 221.536C418.4 221.608 418.559 221.646 418.72 221.646C418.881 221.646 419.04 221.608 419.184 221.536C419.328 221.465 419.453 221.36 419.55 221.232C419.647 221.103 419.713 220.954 419.742 220.796C419.772 220.638 419.764 220.475 419.72 220.32C419.726 220.056 419.629 219.8 419.45 219.606C419.271 219.412 419.023 219.295 418.76 219.28V219.28ZM434.58 219.28C434.304 219.28 434.04 219.39 433.845 219.585C433.65 219.78 433.54 220.044 433.54 220.32C433.54 220.596 433.65 220.86 433.845 221.055C434.04 221.25 434.304 221.36 434.58 221.36C434.854 221.355 435.116 221.244 435.31 221.05C435.504 220.856 435.615 220.594 435.62 220.32C435.62 220.18 435.592 220.041 435.537 219.913C435.482 219.784 435.402 219.667 435.301 219.57C435.201 219.473 435.081 219.397 434.95 219.347C434.819 219.298 434.68 219.275 434.54 219.28H434.58ZM450.4 219.28C450.264 219.28 450.13 219.307 450.005 219.359C449.88 219.412 449.767 219.489 449.672 219.586C449.577 219.683 449.502 219.797 449.452 219.924C449.402 220.05 449.377 220.184 449.38 220.32C449.38 220.526 449.442 220.728 449.557 220.9C449.672 221.071 449.836 221.204 450.027 221.283C450.218 221.361 450.428 221.38 450.63 221.338C450.833 221.296 451.018 221.195 451.162 221.048C451.307 220.901 451.405 220.713 451.442 220.51C451.48 220.307 451.457 220.098 451.375 219.908C451.293 219.718 451.157 219.557 450.983 219.445C450.809 219.334 450.606 219.276 450.4 219.28V219.28ZM466.24 219.28C465.964 219.28 465.7 219.39 465.505 219.585C465.31 219.78 465.2 220.044 465.2 220.32C465.156 220.475 465.148 220.638 465.178 220.796C465.207 220.954 465.273 221.103 465.37 221.232C465.467 221.36 465.592 221.465 465.736 221.536C465.88 221.608 466.039 221.646 466.2 221.646C466.361 221.646 466.52 221.608 466.664 221.536C466.808 221.465 466.933 221.36 467.03 221.232C467.127 221.103 467.193 220.954 467.222 220.796C467.252 220.638 467.244 220.475 467.2 220.32C467.206 220.056 467.109 219.8 466.93 219.606C466.751 219.412 466.503 219.295 466.24 219.28V219.28ZM482.06 219.28C481.784 219.28 481.52 219.39 481.325 219.585C481.13 219.78 481.02 220.044 481.02 220.32C481.02 220.596 481.13 220.86 481.325 221.055C481.52 221.25 481.784 221.36 482.06 221.36C482.334 221.355 482.596 221.244 482.79 221.05C482.984 220.856 483.095 220.594 483.1 220.32C483.1 220.183 483.073 220.048 483.021 219.922C482.969 219.796 482.892 219.681 482.795 219.585C482.699 219.488 482.584 219.411 482.458 219.359C482.332 219.307 482.197 219.28 482.06 219.28V219.28ZM497.88 219.28C497.744 219.28 497.61 219.307 497.485 219.359C497.36 219.412 497.247 219.489 497.152 219.586C497.057 219.683 496.982 219.797 496.932 219.924C496.882 220.05 496.857 220.184 496.86 220.32C496.86 220.526 496.922 220.728 497.037 220.9C497.152 221.071 497.316 221.204 497.507 221.283C497.698 221.361 497.908 221.38 498.11 221.338C498.313 221.296 498.498 221.195 498.642 221.048C498.787 220.901 498.885 220.713 498.922 220.51C498.96 220.307 498.937 220.098 498.855 219.908C498.773 219.718 498.637 219.557 498.463 219.445C498.289 219.334 498.087 219.276 497.88 219.28ZM410.84 207.5C410.685 207.456 410.522 207.448 410.364 207.478C410.206 207.507 410.057 207.573 409.928 207.67C409.8 207.767 409.695 207.892 409.623 208.036C409.552 208.18 409.514 208.339 409.514 208.5C409.514 208.661 409.552 208.82 409.623 208.964C409.695 209.108 409.8 209.233 409.928 209.33C410.057 209.427 410.206 209.493 410.364 209.522C410.522 209.552 410.685 209.544 410.84 209.5C410.995 209.544 411.158 209.552 411.316 209.522C411.474 209.493 411.623 209.427 411.752 209.33C411.88 209.233 411.985 209.108 412.056 208.964C412.128 208.82 412.166 208.661 412.166 208.5C412.166 208.339 412.128 208.18 412.056 208.036C411.985 207.892 411.88 207.767 411.752 207.67C411.623 207.573 411.474 207.507 411.316 207.478C411.158 207.448 410.995 207.456 410.84 207.5V207.5ZM426.66 207.5C426.453 207.5 426.252 207.562 426.08 207.677C425.909 207.792 425.775 207.956 425.697 208.147C425.619 208.338 425.6 208.548 425.642 208.75C425.683 208.953 425.784 209.138 425.932 209.282C426.079 209.427 426.267 209.525 426.47 209.562C426.673 209.6 426.882 209.577 427.072 209.495C427.262 209.413 427.423 209.277 427.534 209.103C427.646 208.929 427.704 208.726 427.7 208.52C427.7 208.384 427.673 208.25 427.62 208.125C427.568 208 427.491 207.887 427.394 207.792C427.297 207.697 427.183 207.622 427.056 207.572C426.93 207.522 426.796 207.497 426.66 207.5V207.5ZM442.5 207.5C442.293 207.496 442.089 207.554 441.915 207.667C441.741 207.78 441.604 207.942 441.523 208.133C441.442 208.323 441.42 208.534 441.459 208.738C441.499 208.941 441.598 209.129 441.745 209.275C441.891 209.422 442.079 209.521 442.282 209.561C442.486 209.6 442.696 209.578 442.887 209.497C443.078 209.416 443.24 209.279 443.353 209.105C443.466 208.931 443.524 208.727 443.52 208.52C443.52 208.256 443.418 208.003 443.236 207.813C443.053 207.622 442.804 207.51 442.54 207.5H442.5ZM458.32 207.5C458.165 207.456 458.002 207.448 457.844 207.478C457.686 207.507 457.537 207.573 457.408 207.67C457.28 207.767 457.175 207.892 457.103 208.036C457.032 208.18 456.994 208.339 456.994 208.5C456.994 208.661 457.032 208.82 457.103 208.964C457.175 209.108 457.28 209.233 457.408 209.33C457.537 209.427 457.686 209.493 457.844 209.522C458.002 209.552 458.165 209.544 458.32 209.5C458.475 209.544 458.638 209.552 458.796 209.522C458.954 209.493 459.103 209.427 459.232 209.33C459.36 209.233 459.465 209.108 459.536 208.964C459.608 208.82 459.646 208.661 459.646 208.5C459.646 208.339 459.608 208.18 459.536 208.036C459.465 207.892 459.36 207.767 459.232 207.67C459.103 207.573 458.954 207.507 458.796 207.478C458.638 207.448 458.475 207.456 458.32 207.5V207.5ZM474.14 207.5C473.933 207.5 473.732 207.562 473.56 207.677C473.389 207.792 473.255 207.956 473.177 208.147C473.099 208.338 473.08 208.548 473.122 208.75C473.163 208.953 473.264 209.138 473.412 209.282C473.559 209.427 473.747 209.525 473.95 209.562C474.153 209.6 474.362 209.577 474.552 209.495C474.742 209.413 474.903 209.277 475.015 209.103C475.126 208.929 475.184 208.726 475.18 208.52C475.18 208.384 475.153 208.25 475.1 208.125C475.048 208 474.971 207.887 474.874 207.792C474.777 207.697 474.663 207.622 474.536 207.572C474.41 207.522 474.276 207.497 474.14 207.5V207.5ZM489.98 207.5C489.773 207.496 489.569 207.554 489.395 207.667C489.221 207.78 489.084 207.942 489.003 208.133C488.922 208.323 488.9 208.534 488.939 208.738C488.979 208.941 489.078 209.129 489.225 209.275C489.371 209.422 489.559 209.521 489.762 209.561C489.966 209.6 490.176 209.578 490.367 209.497C490.558 209.416 490.72 209.279 490.833 209.105C490.946 208.931 491.004 208.727 491 208.52C491 208.386 490.974 208.253 490.922 208.13C490.871 208.006 490.796 207.893 490.701 207.799C490.607 207.704 490.494 207.629 490.37 207.578C490.247 207.526 490.114 207.5 489.98 207.5V207.5ZM505.98 207.5H505.7C505.516 207.498 505.335 207.545 505.175 207.635C505.015 207.726 504.882 207.858 504.789 208.017C504.696 208.176 504.648 208.357 504.648 208.541C504.648 208.725 504.697 208.906 504.79 209.065C504.883 209.224 505.016 209.355 505.177 209.445C505.337 209.536 505.518 209.582 505.702 209.58C505.886 209.577 506.066 209.526 506.224 209.431C506.382 209.336 506.511 209.201 506.6 209.04C506.54 208.54 506.3 208.04 506.08 207.54L505.98 207.5ZM418.66 242.56C418.453 242.556 418.249 242.614 418.075 242.727C417.901 242.84 417.764 243.002 417.683 243.193C417.602 243.383 417.58 243.594 417.619 243.798C417.659 244.001 417.758 244.189 417.905 244.335C418.051 244.482 418.239 244.581 418.442 244.621C418.646 244.66 418.856 244.638 419.047 244.557C419.238 244.476 419.4 244.339 419.513 244.165C419.626 243.991 419.684 243.787 419.68 243.58C419.671 243.333 419.573 243.097 419.404 242.917C419.235 242.737 419.006 242.624 418.76 242.6L418.66 242.56ZM434.48 242.56C434.325 242.516 434.162 242.508 434.004 242.538C433.846 242.567 433.696 242.633 433.568 242.73C433.439 242.827 433.335 242.952 433.263 243.096C433.192 243.24 433.154 243.399 433.154 243.56C433.154 243.721 433.192 243.88 433.263 244.024C433.335 244.168 433.439 244.293 433.568 244.39C433.696 244.487 433.846 244.553 434.004 244.582C434.162 244.612 434.325 244.604 434.48 244.56C434.635 244.604 434.798 244.612 434.956 244.582C435.114 244.553 435.263 244.487 435.392 244.39C435.52 244.293 435.625 244.168 435.696 244.024C435.768 243.88 435.806 243.721 435.806 243.56C435.806 243.399 435.768 243.24 435.696 243.096C435.625 242.952 435.52 242.827 435.392 242.73C435.263 242.633 435.114 242.567 434.956 242.538C434.798 242.508 434.635 242.516 434.48 242.56V242.56ZM450.3 242.56C450.093 242.56 449.892 242.622 449.72 242.737C449.549 242.852 449.415 243.016 449.337 243.207C449.259 243.398 449.24 243.608 449.282 243.81C449.323 244.013 449.425 244.198 449.572 244.342C449.719 244.487 449.907 244.585 450.11 244.622C450.313 244.66 450.522 244.637 450.712 244.555C450.902 244.473 451.063 244.337 451.174 244.163C451.286 243.989 451.344 243.786 451.34 243.58C451.331 243.33 451.23 243.092 451.057 242.911C450.883 242.73 450.65 242.619 450.4 242.6L450.3 242.56ZM466.14 242.56C465.933 242.556 465.729 242.614 465.555 242.727C465.381 242.84 465.244 243.002 465.163 243.193C465.082 243.383 465.06 243.594 465.099 243.798C465.139 244.001 465.238 244.189 465.385 244.335C465.531 244.482 465.719 244.581 465.922 244.621C466.126 244.66 466.336 244.638 466.527 244.557C466.718 244.476 466.88 244.339 466.993 244.165C467.106 243.991 467.164 243.787 467.16 243.58C467.151 243.333 467.053 243.097 466.884 242.917C466.715 242.737 466.486 242.624 466.24 242.6L466.14 242.56ZM481.96 242.56C481.805 242.516 481.642 242.508 481.484 242.538C481.326 242.567 481.177 242.633 481.048 242.73C480.92 242.827 480.815 242.952 480.743 243.096C480.672 243.24 480.634 243.399 480.634 243.56C480.634 243.721 480.672 243.88 480.743 244.024C480.815 244.168 480.92 244.293 481.048 244.39C481.177 244.487 481.326 244.553 481.484 244.582C481.642 244.612 481.805 244.604 481.96 244.56C482.115 244.604 482.278 244.612 482.436 244.582C482.594 244.553 482.743 244.487 482.872 244.39C483 244.293 483.105 244.168 483.177 244.024C483.248 243.88 483.286 243.721 483.286 243.56C483.286 243.399 483.248 243.24 483.177 243.096C483.105 242.952 483 242.827 482.872 242.73C482.743 242.633 482.594 242.567 482.436 242.538C482.278 242.508 482.115 242.516 481.96 242.56V242.56ZM497.78 242.56C497.573 242.56 497.372 242.622 497.2 242.737C497.029 242.852 496.895 243.016 496.817 243.207C496.739 243.398 496.72 243.608 496.762 243.81C496.803 244.013 496.904 244.198 497.052 244.342C497.199 244.487 497.387 244.585 497.59 244.622C497.793 244.66 498.002 244.637 498.192 244.555C498.382 244.473 498.543 244.337 498.655 244.163C498.766 243.989 498.824 243.786 498.82 243.58C498.811 243.33 498.71 243.092 498.537 242.911C498.363 242.73 498.13 242.619 497.88 242.6L497.78 242.56ZM513.62 242.56C513.413 242.556 513.209 242.614 513.035 242.727C512.861 242.84 512.724 243.002 512.643 243.193C512.562 243.383 512.54 243.594 512.579 243.798C512.619 244.001 512.718 244.189 512.865 244.335C513.011 244.482 513.199 244.581 513.402 244.621C513.606 244.66 513.816 244.638 514.007 244.557C514.198 244.476 514.36 244.339 514.473 244.165C514.586 243.991 514.644 243.787 514.64 243.58C514.631 243.333 514.533 243.097 514.364 242.917C514.195 242.737 513.966 242.624 513.72 242.6L513.62 242.56ZM410.74 230.76C410.464 230.76 410.2 230.87 410.005 231.065C409.81 231.26 409.7 231.524 409.7 231.8C409.7 232.076 409.81 232.34 410.005 232.535C410.2 232.73 410.464 232.84 410.74 232.84C411.014 232.835 411.276 232.724 411.47 232.53C411.664 232.336 411.775 232.074 411.78 231.8C411.771 231.548 411.671 231.307 411.498 231.123C411.325 230.939 411.091 230.824 410.84 230.8L410.74 230.76ZM426.56 230.76C426.424 230.76 426.29 230.787 426.165 230.839C426.04 230.892 425.927 230.969 425.832 231.066C425.737 231.163 425.662 231.277 425.612 231.403C425.562 231.53 425.537 231.664 425.54 231.8C425.54 232.007 425.602 232.208 425.717 232.38C425.832 232.551 425.996 232.684 426.187 232.763C426.378 232.841 426.588 232.86 426.79 232.818C426.993 232.776 427.178 232.675 427.322 232.528C427.467 232.381 427.565 232.193 427.602 231.99C427.64 231.787 427.617 231.578 427.535 231.388C427.453 231.198 427.317 231.037 427.143 230.925C426.969 230.814 426.766 230.756 426.56 230.76ZM442.4 230.76C442.124 230.76 441.86 230.87 441.665 231.065C441.47 231.26 441.36 231.524 441.36 231.8C441.316 231.955 441.308 232.118 441.338 232.276C441.367 232.434 441.433 232.583 441.53 232.712C441.627 232.84 441.752 232.945 441.896 233.016C442.04 233.088 442.199 233.126 442.36 233.126C442.521 233.126 442.68 233.088 442.824 233.016C442.968 232.945 443.093 232.84 443.19 232.712C443.287 232.583 443.353 232.434 443.382 232.276C443.412 232.118 443.404 231.955 443.36 231.8C443.36 231.564 443.278 231.336 443.129 231.153C442.979 230.971 442.771 230.846 442.54 230.8L442.4 230.76ZM458.22 230.76C457.944 230.76 457.68 230.87 457.485 231.065C457.29 231.26 457.18 231.524 457.18 231.8C457.18 232.076 457.29 232.34 457.485 232.535C457.68 232.73 457.944 232.84 458.22 232.84C458.494 232.835 458.756 232.724 458.95 232.53C459.144 232.336 459.255 232.074 459.26 231.8C459.251 231.548 459.151 231.307 458.978 231.123C458.805 230.939 458.571 230.824 458.32 230.8L458.22 230.76ZM474.04 230.76C473.904 230.76 473.77 230.787 473.645 230.839C473.52 230.892 473.407 230.969 473.312 231.066C473.217 231.163 473.142 231.277 473.092 231.403C473.042 231.53 473.017 231.664 473.02 231.8C473.02 232.007 473.082 232.208 473.197 232.38C473.312 232.551 473.476 232.684 473.667 232.763C473.858 232.841 474.068 232.86 474.27 232.818C474.473 232.776 474.658 232.675 474.802 232.528C474.947 232.381 475.045 232.193 475.082 231.99C475.12 231.787 475.097 231.578 475.015 231.388C474.933 231.198 474.797 231.037 474.623 230.925C474.449 230.814 474.246 230.756 474.04 230.76V230.76ZM489.88 230.76C489.604 230.76 489.34 230.87 489.145 231.065C488.95 231.26 488.84 231.524 488.84 231.8C488.796 231.955 488.788 232.118 488.818 232.276C488.847 232.434 488.913 232.583 489.01 232.712C489.107 232.84 489.232 232.945 489.376 233.016C489.52 233.088 489.679 233.126 489.84 233.126C490.001 233.126 490.16 233.088 490.304 233.016C490.448 232.945 490.573 232.84 490.67 232.712C490.767 232.583 490.833 232.434 490.862 232.276C490.892 232.118 490.884 231.955 490.84 231.8C490.838 231.558 490.751 231.325 490.593 231.142C490.436 230.959 490.219 230.838 489.98 230.8L489.88 230.76ZM505.7 230.76C505.424 230.76 505.16 230.87 504.965 231.065C504.77 231.26 504.66 231.524 504.66 231.8C504.66 232.076 504.77 232.34 504.965 232.535C505.16 232.73 505.424 232.84 505.7 232.84C505.974 232.835 506.236 232.724 506.43 232.53C506.624 232.336 506.735 232.074 506.74 231.8C506.731 231.548 506.631 231.307 506.458 231.123C506.285 230.939 506.051 230.824 505.8 230.8L505.7 230.76ZM418.66 265.86C418.523 265.86 418.388 265.887 418.262 265.939C418.136 265.991 418.021 266.068 417.925 266.165C417.828 266.261 417.751 266.376 417.699 266.502C417.647 266.628 417.62 266.763 417.62 266.9C417.576 267.055 417.568 267.218 417.598 267.376C417.627 267.534 417.693 267.683 417.79 267.812C417.887 267.94 418.012 268.045 418.156 268.116C418.3 268.188 418.459 268.226 418.62 268.226C418.781 268.226 418.94 268.188 419.084 268.116C419.228 268.045 419.353 267.94 419.45 267.812C419.547 267.683 419.613 267.534 419.642 267.376C419.672 267.218 419.664 267.055 419.62 266.9C419.618 266.658 419.531 266.425 419.373 266.242C419.216 266.059 418.998 265.938 418.76 265.9L418.66 265.86ZM434.48 265.86C434.204 265.86 433.94 265.97 433.745 266.165C433.55 266.36 433.44 266.624 433.44 266.9C433.44 267.176 433.55 267.44 433.745 267.635C433.94 267.83 434.204 267.94 434.48 267.94C434.754 267.935 435.016 267.824 435.21 267.63C435.404 267.436 435.515 267.174 435.52 266.9C435.51 266.641 435.405 266.395 435.223 266.21C435.042 266.025 434.799 265.915 434.54 265.9L434.48 265.86ZM450.3 265.86C450.164 265.86 450.03 265.887 449.905 265.939C449.78 265.992 449.667 266.069 449.572 266.166C449.477 266.263 449.402 266.377 449.352 266.503C449.302 266.63 449.277 266.764 449.28 266.9C449.28 267.107 449.342 267.308 449.457 267.48C449.572 267.651 449.736 267.784 449.927 267.863C450.118 267.941 450.328 267.96 450.53 267.918C450.733 267.877 450.918 267.775 451.062 267.628C451.207 267.481 451.305 267.293 451.342 267.09C451.38 266.887 451.357 266.678 451.275 266.488C451.193 266.298 451.057 266.137 450.883 266.025C450.709 265.914 450.506 265.856 450.3 265.86V265.86ZM466.14 265.86C466.003 265.86 465.868 265.887 465.742 265.939C465.616 265.991 465.501 266.068 465.405 266.165C465.308 266.261 465.231 266.376 465.179 266.502C465.127 266.628 465.1 266.763 465.1 266.9C465.056 267.055 465.048 267.218 465.078 267.376C465.107 267.534 465.173 267.683 465.27 267.812C465.367 267.94 465.492 268.045 465.636 268.116C465.78 268.188 465.939 268.226 466.1 268.226C466.261 268.226 466.42 268.188 466.564 268.116C466.708 268.045 466.833 267.94 466.93 267.812C467.027 267.683 467.093 267.534 467.122 267.376C467.152 267.218 467.144 267.055 467.1 266.9C467.098 266.658 467.011 266.425 466.853 266.242C466.696 266.059 466.479 265.938 466.24 265.9L466.14 265.86ZM481.96 265.86C481.823 265.86 481.688 265.887 481.562 265.939C481.436 265.991 481.321 266.068 481.225 266.165C481.128 266.261 481.051 266.376 480.999 266.502C480.947 266.628 480.92 266.763 480.92 266.9C480.92 267.176 481.03 267.44 481.225 267.635C481.42 267.83 481.684 267.94 481.96 267.94C482.234 267.935 482.496 267.824 482.69 267.63C482.884 267.436 482.995 267.174 483 266.9C482.991 266.648 482.891 266.407 482.718 266.223C482.545 266.039 482.311 265.924 482.06 265.9L481.96 265.86ZM497.78 265.86C497.644 265.86 497.51 265.887 497.385 265.939C497.26 265.992 497.147 266.069 497.052 266.166C496.957 266.263 496.882 266.377 496.832 266.503C496.782 266.63 496.757 266.764 496.76 266.9C496.76 267.107 496.822 267.308 496.937 267.48C497.052 267.651 497.216 267.784 497.407 267.863C497.598 267.941 497.808 267.96 498.01 267.918C498.213 267.877 498.398 267.775 498.542 267.628C498.687 267.481 498.785 267.293 498.822 267.09C498.86 266.887 498.837 266.678 498.755 266.488C498.673 266.298 498.537 266.137 498.363 266.025C498.189 265.914 497.986 265.856 497.78 265.86V265.86ZM513.62 265.86C513.344 265.86 513.08 265.97 512.885 266.165C512.69 266.36 512.58 266.624 512.58 266.9C512.576 267.077 512.625 267.251 512.72 267.4L514.6 266.64C514.547 266.441 514.434 266.263 514.277 266.131C514.119 265.998 513.925 265.918 513.72 265.9L513.62 265.86ZM410.74 254.08C410.585 254.036 410.422 254.028 410.264 254.058C410.106 254.087 409.957 254.153 409.828 254.25C409.699 254.347 409.595 254.472 409.523 254.616C409.452 254.76 409.414 254.919 409.414 255.08C409.414 255.241 409.452 255.4 409.523 255.544C409.595 255.688 409.699 255.813 409.828 255.91C409.957 256.007 410.106 256.073 410.264 256.102C410.422 256.132 410.585 256.124 410.74 256.08C410.895 256.124 411.058 256.132 411.216 256.102C411.374 256.073 411.523 256.007 411.652 255.91C411.78 255.813 411.885 255.688 411.956 255.544C412.028 255.4 412.066 255.241 412.066 255.08C412.066 254.919 412.028 254.76 411.956 254.616C411.885 254.472 411.78 254.347 411.652 254.25C411.523 254.153 411.374 254.087 411.216 254.058C411.058 254.028 410.895 254.036 410.74 254.08V254.08ZM426.56 254.08C426.353 254.08 426.152 254.142 425.98 254.257C425.809 254.372 425.675 254.536 425.597 254.727C425.519 254.918 425.5 255.128 425.542 255.33C425.583 255.533 425.685 255.718 425.832 255.862C425.979 256.007 426.167 256.105 426.37 256.142C426.573 256.18 426.782 256.157 426.972 256.075C427.162 255.993 427.323 255.857 427.435 255.683C427.546 255.509 427.604 255.306 427.6 255.1C427.591 254.85 427.49 254.612 427.317 254.431C427.143 254.25 426.91 254.139 426.66 254.12L426.56 254.08ZM442.4 254.08C442.193 254.076 441.989 254.134 441.815 254.247C441.641 254.36 441.504 254.522 441.423 254.713C441.342 254.903 441.32 255.114 441.359 255.318C441.399 255.521 441.498 255.709 441.645 255.855C441.791 256.002 441.979 256.101 442.182 256.141C442.386 256.18 442.596 256.158 442.787 256.077C442.978 255.996 443.14 255.859 443.253 255.685C443.366 255.511 443.424 255.307 443.42 255.1C443.413 254.859 443.32 254.628 443.159 254.449C442.998 254.269 442.779 254.153 442.54 254.12L442.4 254.08ZM458.22 254.08C458.065 254.036 457.902 254.028 457.744 254.058C457.586 254.087 457.437 254.153 457.308 254.25C457.18 254.347 457.075 254.472 457.003 254.616C456.932 254.76 456.894 254.919 456.894 255.08C456.894 255.241 456.932 255.4 457.003 255.544C457.075 255.688 457.18 255.813 457.308 255.91C457.437 256.007 457.586 256.073 457.744 256.102C457.902 256.132 458.065 256.124 458.22 256.08C458.375 256.124 458.538 256.132 458.696 256.102C458.854 256.073 459.003 256.007 459.132 255.91C459.26 255.813 459.365 255.688 459.436 255.544C459.508 255.4 459.546 255.241 459.546 255.08C459.546 254.919 459.508 254.76 459.436 254.616C459.365 254.472 459.26 254.347 459.132 254.25C459.003 254.153 458.854 254.087 458.696 254.058C458.538 254.028 458.375 254.036 458.22 254.08V254.08ZM474.04 254.08C473.833 254.08 473.632 254.142 473.46 254.257C473.289 254.372 473.155 254.536 473.077 254.727C472.999 254.918 472.98 255.128 473.022 255.33C473.063 255.533 473.164 255.718 473.312 255.862C473.459 256.007 473.647 256.105 473.85 256.142C474.053 256.18 474.262 256.157 474.452 256.075C474.642 255.993 474.803 255.857 474.914 255.683C475.026 255.509 475.084 255.306 475.08 255.1C475.071 254.85 474.97 254.612 474.797 254.431C474.623 254.25 474.39 254.139 474.14 254.12L474.04 254.08ZM489.88 254.08C489.673 254.076 489.469 254.134 489.295 254.247C489.121 254.36 488.984 254.522 488.903 254.713C488.822 254.903 488.8 255.114 488.839 255.318C488.879 255.521 488.978 255.709 489.125 255.855C489.271 256.002 489.459 256.101 489.662 256.141C489.866 256.18 490.076 256.158 490.267 256.077C490.458 255.996 490.62 255.859 490.733 255.685C490.846 255.511 490.904 255.307 490.9 255.1C490.891 254.853 490.793 254.617 490.624 254.437C490.455 254.257 490.226 254.144 489.98 254.12L489.88 254.08ZM505.7 254.08C505.545 254.036 505.382 254.028 505.224 254.058C505.066 254.087 504.917 254.153 504.788 254.25C504.66 254.347 504.555 254.472 504.483 254.616C504.412 254.76 504.374 254.919 504.374 255.08C504.374 255.241 504.412 255.4 504.483 255.544C504.555 255.688 504.66 255.813 504.788 255.91C504.917 256.007 505.066 256.073 505.224 256.102C505.382 256.132 505.545 256.124 505.7 256.08C505.855 256.124 506.018 256.132 506.176 256.102C506.334 256.073 506.483 256.007 506.612 255.91C506.74 255.813 506.845 255.688 506.917 255.544C506.988 255.4 507.026 255.241 507.026 255.08C507.026 254.919 506.988 254.76 506.917 254.616C506.845 254.472 506.74 254.347 506.612 254.25C506.483 254.153 506.334 254.087 506.176 254.058C506.018 254.028 505.855 254.036 505.7 254.08V254.08ZM521.52 254.08C521.313 254.08 521.112 254.142 520.94 254.257C520.769 254.372 520.635 254.536 520.557 254.727C520.479 254.918 520.46 255.128 520.502 255.33C520.543 255.533 520.644 255.718 520.792 255.862C520.939 256.007 521.127 256.105 521.33 256.142C521.533 256.18 521.742 256.157 521.932 256.075C522.122 255.993 522.283 255.857 522.395 255.683C522.506 255.509 522.564 255.306 522.56 255.1C522.551 254.85 522.45 254.612 522.277 254.431C522.103 254.25 521.87 254.139 521.62 254.12L521.52 254.08Z" fill="white"/>
<path d="M526.2 260.88C511.8 269.42 494.92 273.96 478.48 275.94C470.84 236.9 457.84 159.76 454.78 141.54C458.799 142.707 462.597 144.531 466.02 146.94C474.392 153.016 481.516 160.648 487 169.42C505 196.96 526.2 260.88 526.2 260.88Z" fill="#263238"/>
<path d="M479.88 157.02C506.14 187.02 542.44 238.56 528.64 251.46C505.94 272.64 436.64 288.46 420.74 291.46C413.86 292.74 397.08 248.32 401.34 242.18C405.6 236.04 479.34 227.14 479.54 222.56C479.68 219.98 469.4 198.28 460.42 171.26C450.04 140.06 472.36 148.4 479.88 157.02Z" fill="#EB9481"/>
<path d="M413.22 237.62C413.22 237.62 391.98 238.82 378.12 240.26C370.38 241.06 357.26 243.62 351.84 246.8C343.84 251.56 312.96 276.66 318.88 284.26C324.24 291.14 347.96 266.26 347.96 266.26C347.96 266.26 321.8 289.3 329.8 296.38C337.8 303.46 360.82 271.74 360.82 271.74C360.82 271.74 334.48 296 343.86 302.02C350.96 306.56 373.46 279 373.46 279C373.46 279 350.96 300.02 358.06 305C365.9 310.5 388.26 286.38 388.26 286.38C408.42 296.02 421.98 292.38 431.3 288.6C433.56 287.74 413.22 237.62 413.22 237.62Z" fill="#EB9481"/>
<path d="M356.54 257.74C353.38 260.32 350.14 262.94 347.22 265.74C344.3 268.54 341.46 271.58 338.8 274.7C335.264 278.726 332.197 283.141 329.66 287.86C334.78 279.86 345.1 269.38 348.04 266.52C350.98 263.66 353.74 260.64 356.66 257.78C356.7 257.74 356.54 257.62 356.54 257.74Z" fill="#263238"/>
<path d="M367.06 268.06C363.06 271.56 359.06 274.86 355.4 278.54C351.74 282.22 348.44 285.96 344.96 289.86C344.7 290.16 344.96 290.2 345.22 289.86C348.84 286.12 352.48 282.92 356.16 279.22C359.84 275.52 363.36 271.66 367.14 268.1C367.2 268.1 367.12 268 367.06 268.06Z" fill="#263238"/>
<path d="M377.7 275.36C371.584 280.559 366.021 286.377 361.1 292.72C360.84 293.04 361.1 293.06 361.46 292.72C366.86 286.84 371.06 282.18 377.88 275.52C378 275.46 377.84 275.24 377.7 275.36Z" fill="#263238"/>
<path d="M398.84 238.38C389.14 238.94 379.2 239.52 369.58 240.88C361.232 241.81 353.249 244.814 346.36 249.62C339.867 254.653 333.843 260.262 328.36 266.38C325.207 269.47 322.404 272.897 320 276.6C318.66 278.86 316.7 282.42 318.84 284.6C321.44 287.34 330.2 283.94 339.06 274.8C339.38 274.48 339.16 274.3 338.82 274.6C326.3 286.18 320.94 285.28 319.44 283.52C318.48 282.4 319.2 280.28 319.9 278.66C321.05 276.312 322.495 274.121 324.2 272.14C329.833 265.237 336.159 258.931 343.08 253.32C350.499 247.077 359.534 243.063 369.14 241.74C378.98 240.3 389.14 240.42 398.9 238.84C399.1 238.72 399.04 238.38 398.84 238.38Z" fill="#263238"/>
<path d="M511.14 193.26L466.04 195.92C462.426 185.591 459.637 174.991 457.7 164.22C457.58 163.58 457.48 162.94 457.38 162.34C457.38 162.14 457.38 161.96 457.38 161.78C454.84 145.18 460.02 140.58 476.08 153.46C483.688 159.644 490.686 166.543 496.98 174.06L497.56 174.74C500.6 178.34 503.16 181.68 505.22 184.5C505.64 185.08 506.06 185.64 506.42 186.18C509.46 190.46 511.14 193.26 511.14 193.26Z" fill="#FFC107"/>
<path d="M467.26 150.38C467.264 150.587 467.206 150.791 467.093 150.965C466.98 151.139 466.818 151.276 466.627 151.357C466.436 151.438 466.226 151.46 466.022 151.421C465.819 151.381 465.631 151.282 465.485 151.135C465.338 150.989 465.239 150.801 465.199 150.598C465.16 150.394 465.182 150.184 465.263 149.993C465.344 149.802 465.481 149.64 465.655 149.527C465.829 149.414 466.033 149.356 466.24 149.36C466.51 149.36 466.77 149.467 466.961 149.659C467.153 149.85 467.26 150.109 467.26 150.38V150.38Z" fill="white"/>
<path d="M467.26 173.74C467.26 173.947 467.198 174.148 467.083 174.32C466.968 174.491 466.804 174.625 466.613 174.703C466.422 174.781 466.212 174.8 466.01 174.758C465.807 174.717 465.622 174.616 465.477 174.468C465.333 174.321 465.235 174.133 465.198 173.93C465.16 173.727 465.183 173.518 465.265 173.328C465.347 173.138 465.483 172.977 465.657 172.865C465.831 172.754 466.034 172.696 466.24 172.7C466.376 172.7 466.51 172.727 466.635 172.78C466.76 172.832 466.873 172.909 466.968 173.006C467.063 173.103 467.138 173.217 467.188 173.344C467.238 173.47 467.263 173.604 467.26 173.74V173.74Z" fill="white"/>
<path d="M482.06 174.74C482.634 174.74 483.1 174.274 483.1 173.7C483.1 173.126 482.634 172.66 482.06 172.66C481.486 172.66 481.02 173.126 481.02 173.7C481.02 174.274 481.486 174.74 482.06 174.74Z" fill="white"/>
<path d="M458.32 162.94C458.894 162.94 459.36 162.474 459.36 161.9C459.36 161.326 458.894 160.86 458.32 160.86C457.746 160.86 457.28 161.326 457.28 161.9C457.28 162.474 457.746 162.94 458.32 162.94Z" fill="white"/>
<path d="M474.14 162.94C474.714 162.94 475.18 162.474 475.18 161.9C475.18 161.326 474.714 160.86 474.14 160.86C473.566 160.86 473.1 161.326 473.1 161.9C473.1 162.474 473.566 162.94 474.14 162.94Z" fill="white"/>
<path d="M474.14 186.26C474.714 186.26 475.18 185.794 475.18 185.22C475.18 184.646 474.714 184.18 474.14 184.18C473.566 184.18 473.1 184.646 473.1 185.22C473.1 185.794 473.566 186.26 474.14 186.26Z" fill="white"/>
<path d="M489.98 186.26C490.554 186.26 491.02 185.794 491.02 185.22C491.02 184.646 490.554 184.18 489.98 184.18C489.406 184.18 488.94 184.646 488.94 185.22C488.94 185.794 489.406 186.26 489.98 186.26Z" fill="white"/>
<path d="M506.34 186.1C506.179 186.204 505.992 186.259 505.8 186.26C505.524 186.26 505.26 186.15 505.065 185.955C504.87 185.76 504.76 185.496 504.76 185.22C504.758 185.066 504.791 184.914 504.857 184.776C504.922 184.637 505.019 184.515 505.14 184.42C505.56 185 505.98 185.56 506.34 186.1Z" fill="white"/>
<path d="M439.66 69.74C437.16 68.8 434.76 54.78 444 48.1C453.24 41.42 465.02 49.04 460 60.54C456.94 67.74 444.98 71.74 439.66 69.74Z" fill="#263238"/>
<path d="M466.02 146.94L465.88 147.1C458.52 154.98 443.7 169.28 433.78 168.04C430.843 167.561 428.041 166.467 425.556 164.829C423.071 163.192 420.96 161.049 419.36 158.54C422.292 154.835 425.487 151.346 428.92 148.1C440.54 136.04 453.88 138.68 466.02 146.94Z" fill="#EB9481"/>
<path d="M451.78 144.76C451.62 146.9 443.78 161.88 434.32 162.92C431.22 163.24 428.64 146.4 428.64 146.4L428.16 145.2L421.54 128.38L439.96 112.04L442.64 109.84C442.64 109.84 444.16 114.56 445.98 120.46C445.98 120.74 446.14 121 446.24 121.3C446.34 121.6 446.46 121.94 446.54 122.26C446.82 123.12 447.1 124.02 447.38 124.92C447.66 125.82 447.78 126.28 447.98 126.92C448.18 127.56 448.36 128.34 448.58 129.08C449.996 134.229 451.065 139.468 451.78 144.76Z" fill="#EB9481"/>
<path d="M445.98 120.46C444.984 125.63 442.874 130.522 439.797 134.794C436.719 139.066 432.748 142.617 428.16 145.2L421.54 128.38L439.96 112.04L442.64 109.84C442.64 109.84 444.16 114.56 445.98 120.46Z" fill="#263238"/>
<path d="M393.46 104.24C395.46 135.9 414.7 138.24 421.46 137.8C427.66 137.4 448.7 135.22 449.94 103.54C451.18 71.86 435.82 62.78 421.6 62.96C407.38 63.14 391.42 72.6 393.46 104.24Z" fill="#EB9481"/>
<path d="M399 99.06C399.72 98.86 400.36 98.58 401 98.32C401.776 98.1637 402.479 97.756 403 97.16C403.125 96.9454 403.175 96.6954 403.143 96.4492C403.11 96.203 402.997 95.9746 402.82 95.8C402.412 95.5106 401.935 95.3326 401.437 95.2835C400.939 95.2344 400.437 95.3159 399.98 95.52C399 95.8111 398.16 96.4515 397.62 97.32C397.513 97.5284 397.469 97.7631 397.492 97.9961C397.515 98.2291 397.605 98.4506 397.75 98.6341C397.896 98.8175 398.091 98.9552 398.312 99.0307C398.534 99.1063 398.773 99.1164 399 99.06Z" fill="#263238"/>
<path d="M420.84 96.78C420.104 96.7665 419.37 96.7131 418.64 96.62C417.869 96.6741 417.102 96.47 416.46 96.04C416.279 95.8646 416.161 95.6339 416.124 95.3842C416.088 95.1344 416.136 94.8797 416.26 94.66C416.575 94.2728 416.988 93.9761 417.455 93.8005C417.922 93.6248 418.428 93.5763 418.92 93.66C419.937 93.6584 420.917 94.0446 421.66 94.74C421.823 94.9065 421.935 95.117 421.98 95.3458C422.026 95.5746 422.004 95.8117 421.917 96.0281C421.83 96.2446 421.682 96.431 421.49 96.5645C421.299 96.698 421.073 96.7729 420.84 96.78V96.78Z" fill="#263238"/>
<path d="M417.72 105.28C417.72 105.28 417.9 105.28 417.9 105.44C418.08 107.6 418.64 110.04 420.66 110.54V110.66C418.24 110.58 417.54 107.34 417.72 105.28Z" fill="#263238"/>
<path d="M419.38 102.82C422.8 102.18 423.86 109.06 420.68 109.66C417.5 110.26 416.54 103.36 419.38 102.82Z" fill="#263238"/>
<path d="M420.8 102.98C421.46 103.28 422.14 103.88 422.8 103.84C423.46 103.8 424.18 102.98 424.62 102.2C424.62 102.2 424.74 102.2 424.76 102.2C424.98 103.52 424.76 104.96 423.28 105.36C421.8 105.76 420.92 104.72 420.38 103.36C420.36 103.26 420.54 102.86 420.8 102.98Z" fill="#263238"/>
<path d="M404.2 106.32C404.2 106.32 404.04 106.46 404.06 106.54C404.46 108.66 404.58 111.16 402.76 112.18C402.76 112.18 402.76 112.32 402.76 112.3C405.1 111.58 404.92 108.28 404.2 106.32Z" fill="#263238"/>
<path d="M401.94 104.4C398.46 104.68 399.3 111.62 402.5 111.34C405.7 111.06 404.84 104.16 401.94 104.4Z" fill="#263238"/>
<path d="M400.54 105.04C400.04 105.46 399.58 106.2 398.94 106.32C398.3 106.44 397.54 105.78 396.94 105.12C397.06 106.44 397.66 107.78 398.94 107.88C400.22 107.98 400.84 106.74 400.94 105.38C400.98 105.2 400.74 104.86 400.54 105.04Z" fill="#263238"/>
<path d="M410.3 113.6C409.144 113.877 408.029 114.301 406.98 114.86C406.78 108.08 407.66 101.32 407.36 94.56C407.36 94.507 407.339 94.4561 407.301 94.4186C407.264 94.3811 407.213 94.36 407.16 94.36C407.107 94.36 407.056 94.3811 407.019 94.4186C406.981 94.4561 406.96 94.507 406.96 94.56C405.778 101.776 405.329 109.093 405.62 116.4C405.62 117.14 410.36 113.96 410.36 113.96C410.36 113.96 410.34 113.6 410.3 113.6Z" fill="#263238"/>
<path d="M447.98 106.24C440.12 107.06 434.48 83.34 433.82 80.42C434.14 82.28 435.82 92.14 435.1 92.64C434.259 92.7399 433.408 92.6994 432.58 92.52V92.52C432.409 91.3352 432.149 90.1651 431.8 89.02C431.66 88.48 431.8 90.24 431.8 92.42L430.3 92.22C430.032 89.6778 429.426 87.1825 428.5 84.8C428.14 83.9 428.5 88.14 428.1 91.94C421.155 90.922 414.119 90.6738 407.12 91.2C405.12 91.4 403.48 91.66 402 91.94C401.58 89.02 401.48 85.94 401.36 86.56C401.023 88.407 400.868 90.2827 400.9 92.16L398.7 92.64C397.92 88.64 398.96 81.68 398.44 82.78C396.917 86.1595 396.049 89.797 395.88 93.5C393.14 94.44 392.44 95.1 392.26 94.38C391.971 86.1335 394.622 78.0528 399.74 71.58C408.22 61 427.4 55.96 440.38 68.6C440.38 68.6 450.26 73.24 453.02 82.6C455.78 91.96 452.54 105.74 447.98 106.24Z" fill="#263238"/>
<path d="M445.12 106.28C445.12 106.28 450.48 95.46 455.28 97.22C460.08 98.98 457.12 113.96 452.2 116.7C451.592 117.091 450.911 117.356 450.198 117.479C449.486 117.601 448.756 117.579 448.052 117.412C447.348 117.246 446.685 116.94 446.102 116.512C445.519 116.083 445.029 115.542 444.66 114.92L445.12 106.28Z" fill="#EB9481"/>
<path d="M454.32 101.5V101.62C450.88 103.62 449.48 107.34 448.66 111.06C448.817 110.662 449.059 110.303 449.369 110.007C449.678 109.711 450.048 109.486 450.453 109.348C450.858 109.209 451.289 109.159 451.714 109.203C452.14 109.247 452.552 109.382 452.92 109.6C452.941 109.609 452.96 109.625 452.972 109.644C452.985 109.664 452.992 109.687 452.992 109.71C452.992 109.733 452.985 109.756 452.972 109.776C452.96 109.795 452.941 109.811 452.92 109.82C452.246 109.706 451.553 109.807 450.939 110.108C450.325 110.41 449.822 110.897 449.5 111.5C448.954 112.501 448.525 113.561 448.22 114.66C448.1 115.02 447.48 114.92 447.54 114.54V114.44C446.76 109.74 449.4 102.72 454.32 101.5Z" fill="#263238"/>
<path d="M410.2 119.04C411.162 120.219 412.407 121.134 413.82 121.7C414.607 121.95 415.453 121.95 416.24 121.7C417.98 121.2 417.98 119.7 417.62 118.24C417.424 117.544 417.149 116.873 416.8 116.24C414.952 117.849 412.641 118.83 410.2 119.04V119.04Z" fill="#263238"/>
<path d="M413.82 121.74C414.607 121.99 415.453 121.99 416.24 121.74C417.98 121.24 417.98 119.74 417.62 118.28C416.688 118.341 415.805 118.716 415.114 119.345C414.424 119.973 413.968 120.818 413.82 121.74Z" fill="#FF9CBD"/>
<path d="M383.46 148.46C386.138 152.426 387.585 157.095 387.62 161.88C387.62 178.88 368.96 192.66 345.94 192.66C322.92 192.66 304.3 178.88 304.3 161.88C304.3 144.88 322.94 131.1 345.94 131.1C356.166 130.934 366.197 133.908 374.68 139.62L389.04 135.98L383.46 148.46Z" fill="white"/>
<path d="M383.46 148.46C386.121 152.196 387.643 156.622 387.841 161.204C388.04 165.786 386.907 170.328 384.58 174.28C382.253 178.219 379.126 181.626 375.4 184.28C371.706 186.984 367.609 189.089 363.26 190.52C358.923 191.981 354.422 192.902 349.86 193.26C345.297 193.591 340.71 193.369 336.2 192.6C327.032 191.227 318.503 187.081 311.76 180.72C308.409 177.451 305.892 173.425 304.42 168.98C303.001 164.468 302.959 159.636 304.3 155.1C305.685 150.634 308.144 146.576 311.46 143.28C314.719 139.987 318.521 137.281 322.7 135.28C331.032 131.384 340.228 129.704 349.4 130.4C358.562 130.903 367.408 133.927 374.96 139.14H374.58L388.98 135.7L389.48 135.58L389.26 136.04L383.46 148.46ZM383.46 148.46L388.82 135.88L389.1 136.2L374.8 140.06H374.6L374.42 139.94C366.944 135.025 358.261 132.257 349.32 131.94C344.878 131.711 340.425 132.026 336.06 132.88C331.688 133.647 327.446 135.028 323.46 136.98C319.486 138.891 315.872 141.476 312.78 144.62C309.704 147.719 307.431 151.523 306.16 155.7C304.948 159.876 305.011 164.319 306.34 168.46C307.675 172.616 310.002 176.385 313.12 179.44C319.567 185.578 327.741 189.592 336.54 190.94C345.321 192.497 354.348 191.921 362.86 189.26C371.477 186.782 378.929 181.315 383.88 173.84C386.212 170.024 387.431 165.632 387.4 161.16C387.271 156.646 385.909 152.254 383.46 148.46V148.46Z" fill="#263238"/>
<path d="M330.96 161.88C330.96 161.026 330.707 160.19 330.232 159.48C329.757 158.77 329.083 158.216 328.293 157.889C327.504 157.562 326.635 157.476 325.797 157.643C324.959 157.81 324.189 158.221 323.585 158.825C322.981 159.429 322.57 160.199 322.403 161.037C322.236 161.875 322.322 162.744 322.649 163.533C322.976 164.323 323.53 164.997 324.24 165.472C324.95 165.947 325.786 166.2 326.64 166.2C327.786 166.2 328.885 165.745 329.695 164.935C330.505 164.125 330.96 163.026 330.96 161.88Z" fill="#263238"/>
<path d="M350.28 161.88C350.28 161.026 350.027 160.19 349.552 159.48C349.077 158.77 348.403 158.216 347.613 157.889C346.824 157.562 345.955 157.476 345.117 157.643C344.279 157.81 343.509 158.221 342.905 158.825C342.301 159.429 341.89 160.199 341.723 161.037C341.556 161.875 341.642 162.744 341.969 163.533C342.296 164.323 342.85 164.997 343.56 165.472C344.27 165.947 345.106 166.2 345.96 166.2C347.106 166.2 348.205 165.745 349.015 164.935C349.825 164.125 350.28 163.026 350.28 161.88V161.88Z" fill="#263238"/>
<path d="M369.58 161.88C369.58 161.026 369.327 160.19 368.852 159.48C368.377 158.77 367.703 158.216 366.913 157.889C366.124 157.562 365.255 157.476 364.417 157.643C363.579 157.81 362.809 158.221 362.205 158.825C361.601 159.429 361.19 160.199 361.023 161.037C360.856 161.875 360.942 162.744 361.269 163.533C361.596 164.323 362.15 164.997 362.86 165.472C363.57 165.947 364.406 166.2 365.26 166.2C366.406 166.2 367.505 165.745 368.315 164.935C369.125 164.125 369.58 163.026 369.58 161.88V161.88Z" fill="#263238"/>
<path d="M389.04 298.78H232.08V305.82H389.04V298.78Z" fill="#455A64"/>
<path d="M311.08 298.78H232.08V305.82H311.08V298.78Z" fill="#263238"/>
<path d="M302.58 305.82H149.62L129.62 201.92H282.58L302.58 305.82Z" fill="#7A799C"/>
<path d="M225.4 253.86C225.534 255.045 225.413 256.245 225.046 257.38C224.679 258.515 224.074 259.559 223.271 260.441C222.469 261.323 221.487 262.024 220.391 262.496C219.296 262.969 218.113 263.202 216.92 263.18C214.381 263.139 211.946 262.167 210.077 260.449C208.208 258.731 207.035 256.386 206.78 253.86C206.652 252.675 206.778 251.477 207.149 250.344C207.52 249.212 208.127 248.171 208.931 247.292C209.735 246.412 210.717 245.714 211.812 245.243C212.906 244.772 214.089 244.539 215.28 244.56C217.813 244.601 220.243 245.571 222.109 247.285C223.974 249 225.145 251.339 225.4 253.86V253.86Z" fill="#A6A6A6"/>
<path d="M496.78 289.42C495.495 292.527 493.178 295.095 490.219 296.691C487.26 298.287 483.842 298.813 480.54 298.18C479.165 297.916 477.823 297.5 476.54 296.94L478.92 291.42C479.615 291.735 480.338 291.983 481.08 292.16C483.137 292.671 485.31 292.423 487.199 291.46C489.087 290.497 490.565 288.885 491.36 286.92C493.98 281.24 493.1 269.56 488.66 265.84C488.36 265.56 487.22 265.24 483.2 266.92C482.46 267.24 481.62 267.6 480.68 268.06C479.96 268.468 479.195 268.79 478.4 269.02L477.74 266.1L476.9 263.22C477.16 263.12 477.56 262.92 478.08 262.66C479.908 261.73 481.807 260.948 483.76 260.32C486.78 259.42 490.08 259.18 492.52 261.24C499.7 267.32 500.06 282.3 496.78 289.42Z" fill="#FFC727"/>
<path d="M478.88 291.42C479.575 291.735 480.298 291.983 481.04 292.16L480.54 298.16C479.165 297.896 477.823 297.48 476.54 296.92L478.88 291.42Z" fill="#263238"/>
<path d="M483.72 260.32L483.16 266.92C482.42 267.24 481.58 267.6 480.64 268.06C479.92 268.468 479.155 268.79 478.36 269.02L477.7 266.1L476.86 263.22C477.12 263.12 477.52 262.92 478.04 262.66C479.868 261.73 481.767 260.948 483.72 260.32V260.32Z" fill="#263238"/>
<path d="M480.5 247.62L480.3 252.96L480.18 256.22L480.12 258.18L478.38 305.12H437.88L436.14 258.18L436.08 256.22L435.96 252.96L435.76 247.62H480.5Z" fill="#FFC727"/>
<path d="M480.5 247.62L480.3 252.96H435.96L435.76 247.62H480.5Z" fill="#455A64"/>
<path d="M480.18 256.22L480.12 258.18H436.14L436.08 256.22H480.18Z" fill="#455A64"/>
<path d="M201.38 318.42L200.88 357.84L195.38 790.2H189.2L183.7 357.84L183.2 318.42H201.38Z" fill="#455A64"/>
<path d="M183.2 318.42H201.38L200.88 357.84H183.7L183.2 318.42Z" fill="#263238"/>
<path d="M639.76 318.42L639.26 357.84L633.76 790.2H627.58L622.08 357.84L621.58 318.42H639.76Z" fill="#455A64"/>
<path d="M639.76 318.42L639.26 357.84H622.08L621.58 318.42H639.76Z" fill="#263238"/>
<path d="M138.32 318.42L137.82 357.84L132.32 790.2H126.14L120.64 357.84L120.14 318.42H138.32Z" fill="#37474F"/>
<path d="M120.14 318.42H138.32L137.82 357.84H120.64L120.14 318.42Z" fill="#263238"/>
<path d="M576.68 318.42L576.18 357.84L570.68 790.2H564.5L559 357.84L558.5 318.42H576.68Z" fill="#37474F"/>
<path d="M558.5 318.42H576.68L576.18 357.84H559L558.5 318.42Z" fill="#263238"/>
<path d="M563.06 653.4H129.24V661.4H563.06V653.4Z" fill="#37474F"/>
<path d="M650.56 305.12H594.36V327.94H650.56V305.12Z" fill="#455A64"/>
<path d="M594.36 305.12H100.3V327.94H594.36V305.12Z" fill="#47465A"/>
<path d="M201.46 542.46C169.28 588.82 135.86 642.46 129 699.66C129 700.52 130.32 700.76 130.48 699.9C133.889 684.267 138.401 668.896 143.98 653.9C165.84 647.2 187.32 641.6 198.26 619.4C209.4 596.58 207.06 567.4 204.1 542.9C203.9 541.58 202.12 541.58 201.46 542.46Z" fill="#FFC727"/>
<path d="M143.26 652.84C158.08 618.94 177.16 584.84 201.54 556.84C201.7 556.66 201.96 556.84 201.82 557.12C185.82 577.02 173.82 598.66 162.02 620.68C173.04 609.32 185.12 599.14 195.56 587.12C195.76 586.9 196.08 587.12 195.9 587.46C185.54 600.06 174.24 613.76 160.7 623.12C157.1 629.88 153.467 636.647 149.8 643.42C150.7 642.92 151.64 642.46 152.58 641.98C152.74 641.98 152.88 642.14 152.72 642.22C151.68 642.76 150.72 643.32 149.6 643.78C147.86 646.98 146.12 650.2 144.34 653.4C143.94 654.16 142.94 653.56 143.26 652.84Z" fill="#263238"/>
<path d="M154.38 640.96C163.358 635.857 171.918 630.052 179.98 623.6C180.2 623.42 180.52 623.74 180.3 623.92C172.49 630.769 163.921 636.701 154.76 641.6C154.34 641.74 153.96 641.2 154.38 640.96Z" fill="#263238"/>
<path d="M124.92 705C124.92 705.7 126.18 705.64 126.14 705C125.78 686.24 125.08 667.42 124.8 648.58C129.32 638.76 139.48 633.1 146.42 625.12C151.413 619.303 155.715 612.927 159.24 606.12C167.396 589.87 172.159 572.13 173.24 553.98C174.64 533.88 165.12 467.98 156.72 470.48C152.38 471.8 139.14 504.98 135.7 515.92C130.124 533.961 126.194 552.47 123.96 571.22C118.4 615.44 120.28 660.72 124.92 705Z" fill="#FFC727"/>
<path d="M122.54 624.16C122.88 600.42 127.54 576.32 131.86 553.18C136.54 528.24 142.16 504.72 154.28 482.26C154.5 481.84 155.12 482.26 154.92 482.62C146.943 500.052 140.907 518.309 136.92 537.06C137.74 535.7 138.74 534.42 139.6 533.06C139.92 532.56 140.76 533.06 140.44 533.52C139.359 535.555 138.08 537.477 136.62 539.26C136.561 539.275 136.499 539.275 136.44 539.26C132.58 557.1 129.94 575.26 127.78 593.46C127.96 593.22 128.16 592.96 128.36 592.74C128.56 592.52 128.72 592.74 128.64 592.94C128.32 593.56 127.96 594.16 127.62 594.76C126.52 603.98 125.62 613.16 124.52 622.28C140.52 607.84 153.92 591 161.2 570.5C161.2 570.4 161.38 570.5 161.36 570.5C154.26 591.76 142.64 610.8 124.32 624.1C124.04 626.56 123.78 629.02 123.5 631.46C123.5 631.96 122.62 631.86 122.62 631.46C122.62 629.3 122.62 627.14 122.62 624.96C122.553 624.92 122.496 624.865 122.454 624.799C122.412 624.733 122.386 624.658 122.378 624.58C122.371 624.502 122.381 624.424 122.409 624.351C122.437 624.278 122.482 624.212 122.54 624.16Z" fill="#263238"/>
<path d="M129.14 589.58C141.14 570.6 152.22 552.16 160.76 531.32C160.76 531.08 161.24 531.32 161.16 531.48C154.06 552.16 143.88 573.18 129.78 590.04C129.5 590.38 128.9 589.96 129.14 589.58Z" fill="#263238"/>
<path d="M143.94 527.2C148.84 517.9 154.04 508.84 158.62 499.36C158.76 499.1 159.12 499.36 159.02 499.58C155.315 509.415 150.525 518.806 144.74 527.58C144.674 527.656 144.585 527.708 144.487 527.728C144.389 527.748 144.287 527.736 144.196 527.693C144.105 527.65 144.031 527.579 143.985 527.49C143.939 527.401 143.923 527.299 143.94 527.2V527.2Z" fill="#263238"/>
<path d="M142.02 531.24C142.14 531.24 142.14 531.38 142.02 531.4C141.9 531.42 141.92 531.24 142.02 531.24Z" fill="#263238"/>
<path d="M115.04 648.5C115.147 660.932 114.035 673.345 111.72 685.56C111.96 686.88 112.18 688.2 112.42 689.56C115.94 676 117.88 649.22 117.86 646.94C117.851 628.245 115.921 609.6 112.1 591.3C105.3 557.02 91.66 524.32 66.9 499.3C66.6963 499.136 66.4579 499.021 66.203 498.963C65.948 498.905 65.6832 498.906 65.4287 498.966C65.1742 499.026 64.9367 499.143 64.7341 499.308C64.5316 499.473 64.3695 499.683 64.26 499.92C55.28 524.84 59.52 554.16 68.48 578.5C73.3505 591.642 80.108 604.005 88.54 615.2C97.18 626.54 107.98 636.04 115.04 648.5Z" fill="#FFC727"/>
<path d="M70.08 510.64C93.9 546.92 111.02 590.28 114.22 633.86C114.22 634.64 112.98 634.88 112.84 634.08C112.18 630.18 111.48 626.32 110.74 622.46C101.06 613.72 91.12 604.46 84.04 593.4C83.92 593.22 84.2 592.98 84.36 593.14C92.82 602.28 100.74 611.64 110.24 619.72C108.347 610.12 106.12 600.68 103.56 591.4L101.7 589.4C101.3 588.94 101.94 588.24 102.36 588.7L102.92 589.28C99.3288 576.519 94.9811 563.984 89.9 551.74C83.9 545 77.24 539.22 72.78 531C72.768 530.961 72.7692 530.92 72.7836 530.882C72.798 530.845 72.8246 530.813 72.8592 530.792C72.8938 530.771 72.9344 530.763 72.9744 530.768C73.0145 530.773 73.0516 530.791 73.08 530.82C76.6 535.48 80.04 540.18 84 544.48C85.6 546.2 87.32 547.8 88.96 549.48C83.3339 536.234 76.729 523.425 69.2 511.16C69.1586 511.046 69.1583 510.921 69.1993 510.807C69.2403 510.693 69.3198 510.597 69.4242 510.535C69.5286 510.473 69.6513 510.45 69.7711 510.469C69.8908 510.488 70.0001 510.549 70.08 510.64V510.64Z" fill="#263238"/>
<path d="M76 556.08C83.64 565.78 92.3 574.98 99.44 585.02C99.64 585.3 99.22 585.62 98.96 585.4C89.94 577.4 82.18 566.36 75.5 556.38C75.3 556.08 75.76 555.74 76 556.08Z" fill="#263238"/>
<path d="M100.54 587.28L100.88 587.58C101.1 587.8 100.76 588.14 100.54 587.94L100.22 587.62C99.98 587.42 100.3 587.06 100.54 587.28Z" fill="#263238"/>
<path d="M32.04 571.74C34.42 590.68 45.08 613.1 57.7 627.4C63.279 633.614 70.09 638.6 77.7 642.04C86.26 646.04 95.24 650.52 104.06 653.68C108.513 664.13 111.916 674.997 114.22 686.12C114.46 685.16 114.72 684.12 114.98 683.2C107.98 635.2 75.64 595 34.98 569.76C34.6588 569.586 34.2961 569.503 33.9313 569.521C33.5665 569.539 33.2135 569.656 32.9105 569.86C32.6076 570.064 32.3663 570.347 32.2128 570.678C32.0593 571.01 31.9996 571.377 32.04 571.74Z" fill="#FFC727"/>
<path d="M46.22 585.5C45.94 585.26 46.22 584.74 46.62 584.96C68.18 599.98 87.86 622.24 99.18 646.04C99.5 646.68 98.6 647.3 98.2 646.64C96.2 643.46 94.2 640.36 92.2 637.3C83.06 635.84 74.2 629.7 67.34 623.82C67.16 623.66 67.34 623.38 67.6 623.54C71.1709 626.605 75.1156 629.206 79.34 631.28C83.1653 632.891 87.0704 634.307 91.04 635.52C87.5 630.28 83.84 625.26 80.04 620.38C70.16 617.34 60.66 611.6 52.26 605.82C52 605.64 52.26 605.2 52.52 605.36C60.882 610.089 69.4872 614.375 78.3 618.2C72.5364 611.039 66.3451 604.233 59.76 597.82C56.62 596.28 53.44 594.72 50.4 593.06C50.3578 593.025 50.3277 592.978 50.3139 592.925C50.3002 592.872 50.3036 592.816 50.3235 592.765C50.3435 592.714 50.379 592.67 50.425 592.641C50.4711 592.611 50.5253 592.597 50.58 592.6C53.0954 593.395 55.5061 594.489 57.76 595.86C54.1 592.36 50.3 588.88 46.22 585.5Z" fill="#263238"/>
<path d="M47.56 602.08C48.1072 602.391 48.6289 602.746 49.12 603.14C49.26 603.26 49.12 603.46 48.94 603.38C48.3657 603.149 47.8162 602.861 47.3 602.52C47.2543 602.48 47.2241 602.425 47.2145 602.366C47.2049 602.306 47.2166 602.244 47.2474 602.192C47.2782 602.14 47.3264 602.1 47.3834 602.08C47.4405 602.059 47.503 602.059 47.56 602.08V602.08Z" fill="#263238"/>
<path d="M163.44 657.28L161.84 693.86L157.44 794.2H86.54L82.14 693.86L80.54 657.28H163.44Z" fill="#37474F"/>
<path d="M163.44 657.28L161.84 693.86H82.14L80.54 657.28H163.44Z" fill="#263238"/>
<path d="M169.54 649.78H74.44V672.84H169.54V649.78Z" fill="#37474F"/>
</svg>
